G04 #@! TF.FileFunction,Legend,Top*
%FSLAX46Y46*%
G04 Gerber Fmt 4.6, Leading zero omitted, Abs format (unit mm)*
G04 Created by KiCad (PCBNEW 4.0.5+dfsg1-4) date Sat Dec 16 07:09:28 2017*
%MOMM*%
%LPD*%
G01*
G04 APERTURE LIST*
%ADD10C,0.100000*%
%ADD11C,0.152400*%
%ADD12C,0.120000*%
%ADD13C,0.150000*%
%ADD14C,0.010000*%
%ADD15R,2.900000X1.500000*%
%ADD16R,1.500000X2.900000*%
%ADD17R,2.900000X3.600000*%
%ADD18R,1.600000X1.150000*%
%ADD19R,3.000000X3.000000*%
%ADD20C,3.000000*%
%ADD21R,2.100000X2.100000*%
%ADD22O,2.100000X2.100000*%
%ADD23R,2.432000X2.127200*%
%ADD24O,2.432000X2.127200*%
%ADD25R,1.700000X1.900000*%
%ADD26R,1.900000X1.700000*%
%ADD27C,2.020000*%
%ADD28R,2.400000X4.200000*%
%ADD29R,2.400000X1.900000*%
%ADD30R,2.100000X1.400000*%
G04 APERTURE END LIST*
D10*
D11*
X167984000Y-97859000D02*
X167984000Y-98621000D01*
X167984000Y-98621000D02*
X183986000Y-98621000D01*
X183986000Y-98621000D02*
X183986000Y-97859000D01*
D12*
X174650000Y-102950000D02*
X174650000Y-108750000D01*
X171350000Y-102950000D02*
X171350000Y-108750000D01*
X174650000Y-102950000D02*
X171350000Y-102950000D01*
X164350000Y-97600000D02*
X163650000Y-97600000D01*
X163650000Y-96400000D02*
X164350000Y-96400000D01*
X162200000Y-111600000D02*
X153200000Y-111600000D01*
X153200000Y-111600000D02*
X153200000Y-102400000D01*
X153200000Y-102400000D02*
X167800000Y-102400000D01*
X167800000Y-102400000D02*
X167800000Y-105200000D01*
X167800000Y-108800000D02*
X167800000Y-111600000D01*
X167800000Y-111600000D02*
X165800000Y-111600000D01*
X166300000Y-102160000D02*
X168040000Y-102160000D01*
X168040000Y-102160000D02*
X168040000Y-103900000D01*
X153570000Y-69670000D02*
X153570000Y-72330000D01*
X191730000Y-69670000D02*
X153570000Y-69670000D01*
X191730000Y-72330000D02*
X153570000Y-72330000D01*
X191730000Y-69670000D02*
X191730000Y-72330000D01*
X193000000Y-69670000D02*
X194330000Y-69670000D01*
X194330000Y-69670000D02*
X194330000Y-71000000D01*
D13*
X194270000Y-89730000D02*
X194270000Y-84650000D01*
X194270000Y-84650000D02*
X191730000Y-84650000D01*
X191730000Y-84650000D02*
X191730000Y-89730000D01*
X191450000Y-92550000D02*
X191450000Y-91000000D01*
X191730000Y-89730000D02*
X194270000Y-89730000D01*
X194550000Y-91000000D02*
X194550000Y-92550000D01*
X194550000Y-92550000D02*
X191450000Y-92550000D01*
D12*
X189880000Y-101400000D02*
X189880000Y-102600000D01*
X188120000Y-102600000D02*
X188120000Y-101400000D01*
X159600000Y-76880000D02*
X158400000Y-76880000D01*
X158400000Y-75120000D02*
X159600000Y-75120000D01*
X191400000Y-77500000D02*
G75*
G03X191400000Y-77500000I-900000J0D01*
G01*
X192127000Y-80710000D02*
X187290000Y-80710000D01*
X192127000Y-74290000D02*
X187290000Y-74290000D01*
X193710000Y-79242000D02*
X193710000Y-75757000D01*
X187290000Y-80710000D02*
X187290000Y-78257000D01*
X187290000Y-76742000D02*
X187290000Y-74290000D01*
X157090000Y-87590000D02*
X157090000Y-88850000D01*
X157090000Y-94410000D02*
X157090000Y-93150000D01*
X160850000Y-87590000D02*
X157090000Y-87590000D01*
X163100000Y-94410000D02*
X157090000Y-94410000D01*
X160700000Y-79700000D02*
X160250000Y-79250000D01*
X157300000Y-79700000D02*
X157750000Y-79250000D01*
X157300000Y-84300000D02*
X157750000Y-84750000D01*
X160700000Y-84300000D02*
X160250000Y-84750000D01*
X156250000Y-83000000D02*
X156250000Y-81000000D01*
X160250000Y-79250000D02*
X157750000Y-79250000D01*
X161750000Y-83000000D02*
X161750000Y-81000000D01*
X160250000Y-84750000D02*
X157750000Y-84750000D01*
X177590000Y-105670000D02*
X177590000Y-108330000D01*
X182730000Y-105670000D02*
X177590000Y-105670000D01*
X182730000Y-108330000D02*
X177590000Y-108330000D01*
X182730000Y-105670000D02*
X182730000Y-108330000D01*
X184000000Y-105670000D02*
X185330000Y-105670000D01*
X185330000Y-105670000D02*
X185330000Y-107000000D01*
X191670000Y-106950000D02*
X194330000Y-106950000D01*
X191670000Y-99270000D02*
X191670000Y-106950000D01*
X194330000Y-99270000D02*
X194330000Y-106950000D01*
X191670000Y-99270000D02*
X194330000Y-99270000D01*
X191670000Y-98000000D02*
X191670000Y-96670000D01*
X191670000Y-96670000D02*
X193000000Y-96670000D01*
D14*
G36*
X187599744Y-111919918D02*
X187655201Y-111947568D01*
X187704148Y-111998480D01*
X187717629Y-112017338D01*
X187732314Y-112042015D01*
X187741842Y-112068816D01*
X187747293Y-112104587D01*
X187749747Y-112156169D01*
X187750286Y-112224267D01*
X187747852Y-112317588D01*
X187739394Y-112387657D01*
X187723174Y-112439931D01*
X187697454Y-112479869D01*
X187660497Y-112512929D01*
X187657782Y-112514886D01*
X187621360Y-112534908D01*
X187577502Y-112544815D01*
X187521724Y-112547257D01*
X187431048Y-112547257D01*
X187431010Y-112635283D01*
X187430166Y-112684308D01*
X187425024Y-112713065D01*
X187411587Y-112730311D01*
X187385858Y-112744808D01*
X187379679Y-112747769D01*
X187350764Y-112761648D01*
X187328376Y-112770414D01*
X187311729Y-112771171D01*
X187300036Y-112761023D01*
X187292510Y-112737073D01*
X187288366Y-112696426D01*
X187286815Y-112636186D01*
X187287071Y-112553455D01*
X187288349Y-112445339D01*
X187288748Y-112413000D01*
X187290185Y-112301524D01*
X187291472Y-112228603D01*
X187430971Y-112228603D01*
X187431755Y-112290499D01*
X187435240Y-112330997D01*
X187443124Y-112357708D01*
X187457105Y-112378244D01*
X187466597Y-112388260D01*
X187505404Y-112417567D01*
X187539763Y-112419952D01*
X187575216Y-112395750D01*
X187576114Y-112394857D01*
X187590539Y-112376153D01*
X187599313Y-112350732D01*
X187603739Y-112311584D01*
X187605118Y-112251697D01*
X187605143Y-112238430D01*
X187601812Y-112155901D01*
X187590969Y-112098691D01*
X187571340Y-112063766D01*
X187541650Y-112048094D01*
X187524491Y-112046514D01*
X187483766Y-112053926D01*
X187455832Y-112078330D01*
X187439017Y-112122980D01*
X187431650Y-112191130D01*
X187430971Y-112228603D01*
X187291472Y-112228603D01*
X187291708Y-112215245D01*
X187293677Y-112150333D01*
X187296450Y-112102958D01*
X187300388Y-112069290D01*
X187305849Y-112045498D01*
X187313192Y-112027753D01*
X187322777Y-112012224D01*
X187326887Y-112006381D01*
X187381405Y-111951185D01*
X187450336Y-111919890D01*
X187530072Y-111911165D01*
X187599744Y-111919918D01*
X187599744Y-111919918D01*
G37*
X187599744Y-111919918D02*
X187655201Y-111947568D01*
X187704148Y-111998480D01*
X187717629Y-112017338D01*
X187732314Y-112042015D01*
X187741842Y-112068816D01*
X187747293Y-112104587D01*
X187749747Y-112156169D01*
X187750286Y-112224267D01*
X187747852Y-112317588D01*
X187739394Y-112387657D01*
X187723174Y-112439931D01*
X187697454Y-112479869D01*
X187660497Y-112512929D01*
X187657782Y-112514886D01*
X187621360Y-112534908D01*
X187577502Y-112544815D01*
X187521724Y-112547257D01*
X187431048Y-112547257D01*
X187431010Y-112635283D01*
X187430166Y-112684308D01*
X187425024Y-112713065D01*
X187411587Y-112730311D01*
X187385858Y-112744808D01*
X187379679Y-112747769D01*
X187350764Y-112761648D01*
X187328376Y-112770414D01*
X187311729Y-112771171D01*
X187300036Y-112761023D01*
X187292510Y-112737073D01*
X187288366Y-112696426D01*
X187286815Y-112636186D01*
X187287071Y-112553455D01*
X187288349Y-112445339D01*
X187288748Y-112413000D01*
X187290185Y-112301524D01*
X187291472Y-112228603D01*
X187430971Y-112228603D01*
X187431755Y-112290499D01*
X187435240Y-112330997D01*
X187443124Y-112357708D01*
X187457105Y-112378244D01*
X187466597Y-112388260D01*
X187505404Y-112417567D01*
X187539763Y-112419952D01*
X187575216Y-112395750D01*
X187576114Y-112394857D01*
X187590539Y-112376153D01*
X187599313Y-112350732D01*
X187603739Y-112311584D01*
X187605118Y-112251697D01*
X187605143Y-112238430D01*
X187601812Y-112155901D01*
X187590969Y-112098691D01*
X187571340Y-112063766D01*
X187541650Y-112048094D01*
X187524491Y-112046514D01*
X187483766Y-112053926D01*
X187455832Y-112078330D01*
X187439017Y-112122980D01*
X187431650Y-112191130D01*
X187430971Y-112228603D01*
X187291472Y-112228603D01*
X187291708Y-112215245D01*
X187293677Y-112150333D01*
X187296450Y-112102958D01*
X187300388Y-112069290D01*
X187305849Y-112045498D01*
X187313192Y-112027753D01*
X187322777Y-112012224D01*
X187326887Y-112006381D01*
X187381405Y-111951185D01*
X187450336Y-111919890D01*
X187530072Y-111911165D01*
X187599744Y-111919918D01*
G36*
X188716093Y-111927780D02*
X188762672Y-111954723D01*
X188795057Y-111981466D01*
X188818742Y-112009484D01*
X188835059Y-112043748D01*
X188845339Y-112089227D01*
X188850914Y-112150892D01*
X188853116Y-112233711D01*
X188853371Y-112293246D01*
X188853371Y-112512391D01*
X188791686Y-112540044D01*
X188730000Y-112567697D01*
X188722743Y-112327670D01*
X188719744Y-112238028D01*
X188716598Y-112172962D01*
X188712701Y-112128026D01*
X188707447Y-112098770D01*
X188700231Y-112080748D01*
X188690450Y-112069511D01*
X188687312Y-112067079D01*
X188639761Y-112048083D01*
X188591697Y-112055600D01*
X188563086Y-112075543D01*
X188551447Y-112089675D01*
X188543391Y-112108220D01*
X188538271Y-112136334D01*
X188535441Y-112179173D01*
X188534256Y-112241895D01*
X188534057Y-112307261D01*
X188534018Y-112389268D01*
X188532614Y-112447316D01*
X188527914Y-112486465D01*
X188517987Y-112511780D01*
X188500903Y-112528323D01*
X188474732Y-112541156D01*
X188439775Y-112554491D01*
X188401596Y-112569007D01*
X188406141Y-112311389D01*
X188407971Y-112218519D01*
X188410112Y-112149889D01*
X188413181Y-112100711D01*
X188417794Y-112066198D01*
X188424568Y-112041562D01*
X188434119Y-112022016D01*
X188445634Y-112004770D01*
X188501190Y-111949680D01*
X188568980Y-111917822D01*
X188642713Y-111910191D01*
X188716093Y-111927780D01*
X188716093Y-111927780D01*
G37*
X188716093Y-111927780D02*
X188762672Y-111954723D01*
X188795057Y-111981466D01*
X188818742Y-112009484D01*
X188835059Y-112043748D01*
X188845339Y-112089227D01*
X188850914Y-112150892D01*
X188853116Y-112233711D01*
X188853371Y-112293246D01*
X188853371Y-112512391D01*
X188791686Y-112540044D01*
X188730000Y-112567697D01*
X188722743Y-112327670D01*
X188719744Y-112238028D01*
X188716598Y-112172962D01*
X188712701Y-112128026D01*
X188707447Y-112098770D01*
X188700231Y-112080748D01*
X188690450Y-112069511D01*
X188687312Y-112067079D01*
X188639761Y-112048083D01*
X188591697Y-112055600D01*
X188563086Y-112075543D01*
X188551447Y-112089675D01*
X188543391Y-112108220D01*
X188538271Y-112136334D01*
X188535441Y-112179173D01*
X188534256Y-112241895D01*
X188534057Y-112307261D01*
X188534018Y-112389268D01*
X188532614Y-112447316D01*
X188527914Y-112486465D01*
X188517987Y-112511780D01*
X188500903Y-112528323D01*
X188474732Y-112541156D01*
X188439775Y-112554491D01*
X188401596Y-112569007D01*
X188406141Y-112311389D01*
X188407971Y-112218519D01*
X188410112Y-112149889D01*
X188413181Y-112100711D01*
X188417794Y-112066198D01*
X188424568Y-112041562D01*
X188434119Y-112022016D01*
X188445634Y-112004770D01*
X188501190Y-111949680D01*
X188568980Y-111917822D01*
X188642713Y-111910191D01*
X188716093Y-111927780D01*
G36*
X187041115Y-111921962D02*
X187109145Y-111957733D01*
X187159351Y-112015301D01*
X187177185Y-112052312D01*
X187191063Y-112107882D01*
X187198167Y-112178096D01*
X187198840Y-112254727D01*
X187193427Y-112329552D01*
X187182270Y-112394342D01*
X187165714Y-112440873D01*
X187160626Y-112448887D01*
X187100355Y-112508707D01*
X187028769Y-112544535D01*
X186951092Y-112555020D01*
X186872548Y-112538810D01*
X186850689Y-112529092D01*
X186808122Y-112499143D01*
X186770763Y-112459433D01*
X186767232Y-112454397D01*
X186752881Y-112430124D01*
X186743394Y-112404178D01*
X186737790Y-112370022D01*
X186735086Y-112321119D01*
X186734299Y-112250935D01*
X186734286Y-112235200D01*
X186734322Y-112230192D01*
X186879429Y-112230192D01*
X186880273Y-112296430D01*
X186883596Y-112340386D01*
X186890583Y-112368779D01*
X186902416Y-112388325D01*
X186908457Y-112394857D01*
X186943186Y-112419680D01*
X186976903Y-112418548D01*
X187010995Y-112397016D01*
X187031329Y-112374029D01*
X187043371Y-112340478D01*
X187050134Y-112287569D01*
X187050598Y-112281399D01*
X187051752Y-112185513D01*
X187039688Y-112114299D01*
X187014570Y-112068194D01*
X186976560Y-112047635D01*
X186962992Y-112046514D01*
X186927364Y-112052152D01*
X186902994Y-112071686D01*
X186888093Y-112109042D01*
X186880875Y-112168150D01*
X186879429Y-112230192D01*
X186734322Y-112230192D01*
X186734826Y-112160413D01*
X186737096Y-112108159D01*
X186742068Y-112071949D01*
X186750713Y-112045299D01*
X186764005Y-112021722D01*
X186766943Y-112017338D01*
X186816313Y-111958249D01*
X186870109Y-111923947D01*
X186935602Y-111910331D01*
X186957842Y-111909665D01*
X187041115Y-111921962D01*
X187041115Y-111921962D01*
G37*
X187041115Y-111921962D02*
X187109145Y-111957733D01*
X187159351Y-112015301D01*
X187177185Y-112052312D01*
X187191063Y-112107882D01*
X187198167Y-112178096D01*
X187198840Y-112254727D01*
X187193427Y-112329552D01*
X187182270Y-112394342D01*
X187165714Y-112440873D01*
X187160626Y-112448887D01*
X187100355Y-112508707D01*
X187028769Y-112544535D01*
X186951092Y-112555020D01*
X186872548Y-112538810D01*
X186850689Y-112529092D01*
X186808122Y-112499143D01*
X186770763Y-112459433D01*
X186767232Y-112454397D01*
X186752881Y-112430124D01*
X186743394Y-112404178D01*
X186737790Y-112370022D01*
X186735086Y-112321119D01*
X186734299Y-112250935D01*
X186734286Y-112235200D01*
X186734322Y-112230192D01*
X186879429Y-112230192D01*
X186880273Y-112296430D01*
X186883596Y-112340386D01*
X186890583Y-112368779D01*
X186902416Y-112388325D01*
X186908457Y-112394857D01*
X186943186Y-112419680D01*
X186976903Y-112418548D01*
X187010995Y-112397016D01*
X187031329Y-112374029D01*
X187043371Y-112340478D01*
X187050134Y-112287569D01*
X187050598Y-112281399D01*
X187051752Y-112185513D01*
X187039688Y-112114299D01*
X187014570Y-112068194D01*
X186976560Y-112047635D01*
X186962992Y-112046514D01*
X186927364Y-112052152D01*
X186902994Y-112071686D01*
X186888093Y-112109042D01*
X186880875Y-112168150D01*
X186879429Y-112230192D01*
X186734322Y-112230192D01*
X186734826Y-112160413D01*
X186737096Y-112108159D01*
X186742068Y-112071949D01*
X186750713Y-112045299D01*
X186764005Y-112021722D01*
X186766943Y-112017338D01*
X186816313Y-111958249D01*
X186870109Y-111923947D01*
X186935602Y-111910331D01*
X186957842Y-111909665D01*
X187041115Y-111921962D01*
G36*
X188168303Y-111931239D02*
X188225527Y-111969735D01*
X188269749Y-112025335D01*
X188296167Y-112096086D01*
X188301510Y-112148162D01*
X188300903Y-112169893D01*
X188295822Y-112186531D01*
X188281855Y-112201437D01*
X188254589Y-112217973D01*
X188209612Y-112239498D01*
X188142511Y-112269374D01*
X188142171Y-112269524D01*
X188080407Y-112297813D01*
X188029759Y-112322933D01*
X187995404Y-112342179D01*
X187982518Y-112352848D01*
X187982514Y-112352934D01*
X187993872Y-112376166D01*
X188020431Y-112401774D01*
X188050923Y-112420221D01*
X188066370Y-112423886D01*
X188108515Y-112411212D01*
X188144808Y-112379471D01*
X188162517Y-112344572D01*
X188179552Y-112318845D01*
X188212922Y-112289546D01*
X188252149Y-112264235D01*
X188286756Y-112250471D01*
X188293993Y-112249714D01*
X188302139Y-112262160D01*
X188302630Y-112293972D01*
X188296643Y-112336866D01*
X188285357Y-112382558D01*
X188269950Y-112422761D01*
X188269171Y-112424322D01*
X188222804Y-112489062D01*
X188162711Y-112533097D01*
X188094465Y-112554711D01*
X188023638Y-112552185D01*
X187955804Y-112523804D01*
X187952788Y-112521808D01*
X187899427Y-112473448D01*
X187864340Y-112410352D01*
X187844922Y-112327387D01*
X187842316Y-112304078D01*
X187837701Y-112194055D01*
X187843233Y-112142748D01*
X187982514Y-112142748D01*
X187984324Y-112174753D01*
X187994222Y-112184093D01*
X188018898Y-112177105D01*
X188057795Y-112160587D01*
X188101275Y-112139881D01*
X188102356Y-112139333D01*
X188139209Y-112119949D01*
X188154000Y-112107013D01*
X188150353Y-112093451D01*
X188134995Y-112075632D01*
X188095923Y-112049845D01*
X188053846Y-112047950D01*
X188016103Y-112066717D01*
X187990034Y-112102915D01*
X187982514Y-112142748D01*
X187843233Y-112142748D01*
X187847194Y-112106027D01*
X187871550Y-112036212D01*
X187905456Y-111987302D01*
X187966653Y-111937878D01*
X188034063Y-111913359D01*
X188102880Y-111911797D01*
X188168303Y-111931239D01*
X188168303Y-111931239D01*
G37*
X188168303Y-111931239D02*
X188225527Y-111969735D01*
X188269749Y-112025335D01*
X188296167Y-112096086D01*
X188301510Y-112148162D01*
X188300903Y-112169893D01*
X188295822Y-112186531D01*
X188281855Y-112201437D01*
X188254589Y-112217973D01*
X188209612Y-112239498D01*
X188142511Y-112269374D01*
X188142171Y-112269524D01*
X188080407Y-112297813D01*
X188029759Y-112322933D01*
X187995404Y-112342179D01*
X187982518Y-112352848D01*
X187982514Y-112352934D01*
X187993872Y-112376166D01*
X188020431Y-112401774D01*
X188050923Y-112420221D01*
X188066370Y-112423886D01*
X188108515Y-112411212D01*
X188144808Y-112379471D01*
X188162517Y-112344572D01*
X188179552Y-112318845D01*
X188212922Y-112289546D01*
X188252149Y-112264235D01*
X188286756Y-112250471D01*
X188293993Y-112249714D01*
X188302139Y-112262160D01*
X188302630Y-112293972D01*
X188296643Y-112336866D01*
X188285357Y-112382558D01*
X188269950Y-112422761D01*
X188269171Y-112424322D01*
X188222804Y-112489062D01*
X188162711Y-112533097D01*
X188094465Y-112554711D01*
X188023638Y-112552185D01*
X187955804Y-112523804D01*
X187952788Y-112521808D01*
X187899427Y-112473448D01*
X187864340Y-112410352D01*
X187844922Y-112327387D01*
X187842316Y-112304078D01*
X187837701Y-112194055D01*
X187843233Y-112142748D01*
X187982514Y-112142748D01*
X187984324Y-112174753D01*
X187994222Y-112184093D01*
X188018898Y-112177105D01*
X188057795Y-112160587D01*
X188101275Y-112139881D01*
X188102356Y-112139333D01*
X188139209Y-112119949D01*
X188154000Y-112107013D01*
X188150353Y-112093451D01*
X188134995Y-112075632D01*
X188095923Y-112049845D01*
X188053846Y-112047950D01*
X188016103Y-112066717D01*
X187990034Y-112102915D01*
X187982514Y-112142748D01*
X187843233Y-112142748D01*
X187847194Y-112106027D01*
X187871550Y-112036212D01*
X187905456Y-111987302D01*
X187966653Y-111937878D01*
X188034063Y-111913359D01*
X188102880Y-111911797D01*
X188168303Y-111931239D01*
G36*
X189375886Y-111851289D02*
X189380139Y-111910613D01*
X189385025Y-111945572D01*
X189391795Y-111960820D01*
X189401702Y-111961015D01*
X189404914Y-111959195D01*
X189447644Y-111946015D01*
X189503227Y-111946785D01*
X189559737Y-111960333D01*
X189595082Y-111977861D01*
X189631321Y-112005861D01*
X189657813Y-112037549D01*
X189675999Y-112077813D01*
X189687322Y-112131543D01*
X189693222Y-112203626D01*
X189695143Y-112298951D01*
X189695177Y-112317237D01*
X189695200Y-112522646D01*
X189649491Y-112538580D01*
X189617027Y-112549420D01*
X189599215Y-112554468D01*
X189598691Y-112554514D01*
X189596937Y-112540828D01*
X189595444Y-112503076D01*
X189594326Y-112446224D01*
X189593697Y-112375234D01*
X189593600Y-112332073D01*
X189593398Y-112246973D01*
X189592358Y-112185981D01*
X189589831Y-112144177D01*
X189585164Y-112116642D01*
X189577707Y-112098456D01*
X189566811Y-112084698D01*
X189560007Y-112078073D01*
X189513272Y-112051375D01*
X189462272Y-112049375D01*
X189416001Y-112071955D01*
X189407444Y-112080107D01*
X189394893Y-112095436D01*
X189386188Y-112113618D01*
X189380631Y-112139909D01*
X189377526Y-112179562D01*
X189376176Y-112237832D01*
X189375886Y-112318173D01*
X189375886Y-112522646D01*
X189330177Y-112538580D01*
X189297713Y-112549420D01*
X189279901Y-112554468D01*
X189279377Y-112554514D01*
X189278037Y-112540623D01*
X189276828Y-112501439D01*
X189275801Y-112440700D01*
X189275002Y-112362141D01*
X189274481Y-112269498D01*
X189274286Y-112166509D01*
X189274286Y-111769342D01*
X189321457Y-111749444D01*
X189368629Y-111729547D01*
X189375886Y-111851289D01*
X189375886Y-111851289D01*
G37*
X189375886Y-111851289D02*
X189380139Y-111910613D01*
X189385025Y-111945572D01*
X189391795Y-111960820D01*
X189401702Y-111961015D01*
X189404914Y-111959195D01*
X189447644Y-111946015D01*
X189503227Y-111946785D01*
X189559737Y-111960333D01*
X189595082Y-111977861D01*
X189631321Y-112005861D01*
X189657813Y-112037549D01*
X189675999Y-112077813D01*
X189687322Y-112131543D01*
X189693222Y-112203626D01*
X189695143Y-112298951D01*
X189695177Y-112317237D01*
X189695200Y-112522646D01*
X189649491Y-112538580D01*
X189617027Y-112549420D01*
X189599215Y-112554468D01*
X189598691Y-112554514D01*
X189596937Y-112540828D01*
X189595444Y-112503076D01*
X189594326Y-112446224D01*
X189593697Y-112375234D01*
X189593600Y-112332073D01*
X189593398Y-112246973D01*
X189592358Y-112185981D01*
X189589831Y-112144177D01*
X189585164Y-112116642D01*
X189577707Y-112098456D01*
X189566811Y-112084698D01*
X189560007Y-112078073D01*
X189513272Y-112051375D01*
X189462272Y-112049375D01*
X189416001Y-112071955D01*
X189407444Y-112080107D01*
X189394893Y-112095436D01*
X189386188Y-112113618D01*
X189380631Y-112139909D01*
X189377526Y-112179562D01*
X189376176Y-112237832D01*
X189375886Y-112318173D01*
X189375886Y-112522646D01*
X189330177Y-112538580D01*
X189297713Y-112549420D01*
X189279901Y-112554468D01*
X189279377Y-112554514D01*
X189278037Y-112540623D01*
X189276828Y-112501439D01*
X189275801Y-112440700D01*
X189275002Y-112362141D01*
X189274481Y-112269498D01*
X189274286Y-112166509D01*
X189274286Y-111769342D01*
X189321457Y-111749444D01*
X189368629Y-111729547D01*
X189375886Y-111851289D01*
G36*
X190039744Y-111950968D02*
X190096616Y-111972087D01*
X190097267Y-111972493D01*
X190132440Y-111998380D01*
X190158407Y-112028633D01*
X190176670Y-112068058D01*
X190188732Y-112121462D01*
X190196096Y-112193651D01*
X190200264Y-112289432D01*
X190200629Y-112303078D01*
X190205876Y-112508842D01*
X190161716Y-112531678D01*
X190129763Y-112547110D01*
X190110470Y-112554423D01*
X190109578Y-112554514D01*
X190106239Y-112541022D01*
X190103587Y-112504626D01*
X190101956Y-112451452D01*
X190101600Y-112408393D01*
X190101592Y-112338641D01*
X190098403Y-112294837D01*
X190087288Y-112273944D01*
X190063501Y-112272925D01*
X190022296Y-112288741D01*
X189960086Y-112317815D01*
X189914341Y-112341963D01*
X189890813Y-112362913D01*
X189883896Y-112385747D01*
X189883886Y-112386877D01*
X189895299Y-112426212D01*
X189929092Y-112447462D01*
X189980809Y-112450539D01*
X190018061Y-112450006D01*
X190037703Y-112460735D01*
X190049952Y-112486505D01*
X190057002Y-112519337D01*
X190046842Y-112537966D01*
X190043017Y-112540632D01*
X190007001Y-112551340D01*
X189956566Y-112552856D01*
X189904626Y-112545759D01*
X189867822Y-112532788D01*
X189816938Y-112489585D01*
X189788014Y-112429446D01*
X189782286Y-112382462D01*
X189786657Y-112340082D01*
X189802475Y-112305488D01*
X189833797Y-112274763D01*
X189884678Y-112243990D01*
X189959176Y-112209252D01*
X189963714Y-112207288D01*
X190030821Y-112176287D01*
X190072232Y-112150862D01*
X190089981Y-112128014D01*
X190086107Y-112104745D01*
X190062643Y-112078056D01*
X190055627Y-112071914D01*
X190008630Y-112048100D01*
X189959933Y-112049103D01*
X189917522Y-112072451D01*
X189889384Y-112115675D01*
X189886769Y-112124160D01*
X189861308Y-112165308D01*
X189829001Y-112185128D01*
X189782286Y-112204770D01*
X189782286Y-112153950D01*
X189796496Y-112080082D01*
X189838675Y-112012327D01*
X189860624Y-111989661D01*
X189910517Y-111960569D01*
X189973967Y-111947400D01*
X190039744Y-111950968D01*
X190039744Y-111950968D01*
G37*
X190039744Y-111950968D02*
X190096616Y-111972087D01*
X190097267Y-111972493D01*
X190132440Y-111998380D01*
X190158407Y-112028633D01*
X190176670Y-112068058D01*
X190188732Y-112121462D01*
X190196096Y-112193651D01*
X190200264Y-112289432D01*
X190200629Y-112303078D01*
X190205876Y-112508842D01*
X190161716Y-112531678D01*
X190129763Y-112547110D01*
X190110470Y-112554423D01*
X190109578Y-112554514D01*
X190106239Y-112541022D01*
X190103587Y-112504626D01*
X190101956Y-112451452D01*
X190101600Y-112408393D01*
X190101592Y-112338641D01*
X190098403Y-112294837D01*
X190087288Y-112273944D01*
X190063501Y-112272925D01*
X190022296Y-112288741D01*
X189960086Y-112317815D01*
X189914341Y-112341963D01*
X189890813Y-112362913D01*
X189883896Y-112385747D01*
X189883886Y-112386877D01*
X189895299Y-112426212D01*
X189929092Y-112447462D01*
X189980809Y-112450539D01*
X190018061Y-112450006D01*
X190037703Y-112460735D01*
X190049952Y-112486505D01*
X190057002Y-112519337D01*
X190046842Y-112537966D01*
X190043017Y-112540632D01*
X190007001Y-112551340D01*
X189956566Y-112552856D01*
X189904626Y-112545759D01*
X189867822Y-112532788D01*
X189816938Y-112489585D01*
X189788014Y-112429446D01*
X189782286Y-112382462D01*
X189786657Y-112340082D01*
X189802475Y-112305488D01*
X189833797Y-112274763D01*
X189884678Y-112243990D01*
X189959176Y-112209252D01*
X189963714Y-112207288D01*
X190030821Y-112176287D01*
X190072232Y-112150862D01*
X190089981Y-112128014D01*
X190086107Y-112104745D01*
X190062643Y-112078056D01*
X190055627Y-112071914D01*
X190008630Y-112048100D01*
X189959933Y-112049103D01*
X189917522Y-112072451D01*
X189889384Y-112115675D01*
X189886769Y-112124160D01*
X189861308Y-112165308D01*
X189829001Y-112185128D01*
X189782286Y-112204770D01*
X189782286Y-112153950D01*
X189796496Y-112080082D01*
X189838675Y-112012327D01*
X189860624Y-111989661D01*
X189910517Y-111960569D01*
X189973967Y-111947400D01*
X190039744Y-111950968D01*
G36*
X190529926Y-111949755D02*
X190595858Y-111974084D01*
X190649273Y-112017117D01*
X190670164Y-112047409D01*
X190692939Y-112102994D01*
X190692466Y-112143186D01*
X190668562Y-112170217D01*
X190659717Y-112174813D01*
X190621530Y-112189144D01*
X190602028Y-112185472D01*
X190595422Y-112161407D01*
X190595086Y-112148114D01*
X190582992Y-112099210D01*
X190551471Y-112064999D01*
X190507659Y-112048476D01*
X190458695Y-112052634D01*
X190418894Y-112074227D01*
X190405450Y-112086544D01*
X190395921Y-112101487D01*
X190389485Y-112124075D01*
X190385317Y-112159328D01*
X190382597Y-112212266D01*
X190380502Y-112287907D01*
X190379960Y-112311857D01*
X190377981Y-112393790D01*
X190375731Y-112451455D01*
X190372357Y-112489608D01*
X190367006Y-112513004D01*
X190358824Y-112526398D01*
X190346959Y-112534545D01*
X190339362Y-112538144D01*
X190307102Y-112550452D01*
X190288111Y-112554514D01*
X190281836Y-112540948D01*
X190278006Y-112499934D01*
X190276600Y-112430999D01*
X190277598Y-112333669D01*
X190277908Y-112318657D01*
X190280101Y-112229859D01*
X190282693Y-112165019D01*
X190286382Y-112119067D01*
X190291864Y-112086935D01*
X190299835Y-112063553D01*
X190310993Y-112043852D01*
X190316830Y-112035410D01*
X190350296Y-111998057D01*
X190387727Y-111969003D01*
X190392309Y-111966467D01*
X190459426Y-111946443D01*
X190529926Y-111949755D01*
X190529926Y-111949755D01*
G37*
X190529926Y-111949755D02*
X190595858Y-111974084D01*
X190649273Y-112017117D01*
X190670164Y-112047409D01*
X190692939Y-112102994D01*
X190692466Y-112143186D01*
X190668562Y-112170217D01*
X190659717Y-112174813D01*
X190621530Y-112189144D01*
X190602028Y-112185472D01*
X190595422Y-112161407D01*
X190595086Y-112148114D01*
X190582992Y-112099210D01*
X190551471Y-112064999D01*
X190507659Y-112048476D01*
X190458695Y-112052634D01*
X190418894Y-112074227D01*
X190405450Y-112086544D01*
X190395921Y-112101487D01*
X190389485Y-112124075D01*
X190385317Y-112159328D01*
X190382597Y-112212266D01*
X190380502Y-112287907D01*
X190379960Y-112311857D01*
X190377981Y-112393790D01*
X190375731Y-112451455D01*
X190372357Y-112489608D01*
X190367006Y-112513004D01*
X190358824Y-112526398D01*
X190346959Y-112534545D01*
X190339362Y-112538144D01*
X190307102Y-112550452D01*
X190288111Y-112554514D01*
X190281836Y-112540948D01*
X190278006Y-112499934D01*
X190276600Y-112430999D01*
X190277598Y-112333669D01*
X190277908Y-112318657D01*
X190280101Y-112229859D01*
X190282693Y-112165019D01*
X190286382Y-112119067D01*
X190291864Y-112086935D01*
X190299835Y-112063553D01*
X190310993Y-112043852D01*
X190316830Y-112035410D01*
X190350296Y-111998057D01*
X190387727Y-111969003D01*
X190392309Y-111966467D01*
X190459426Y-111946443D01*
X190529926Y-111949755D01*
G36*
X191190117Y-112065358D02*
X191189933Y-112173837D01*
X191189219Y-112257287D01*
X191187675Y-112319704D01*
X191185001Y-112365085D01*
X191180894Y-112397429D01*
X191175055Y-112420733D01*
X191167182Y-112438995D01*
X191161221Y-112449418D01*
X191111855Y-112505945D01*
X191049264Y-112541377D01*
X190980013Y-112554090D01*
X190910668Y-112542463D01*
X190869375Y-112521568D01*
X190826025Y-112485422D01*
X190796481Y-112441276D01*
X190778655Y-112383462D01*
X190770463Y-112306313D01*
X190769302Y-112249714D01*
X190769458Y-112245647D01*
X190870857Y-112245647D01*
X190871476Y-112310550D01*
X190874314Y-112353514D01*
X190880840Y-112381622D01*
X190892523Y-112401953D01*
X190906483Y-112417288D01*
X190953365Y-112446890D01*
X191003701Y-112449419D01*
X191051276Y-112424705D01*
X191054979Y-112421356D01*
X191070783Y-112403935D01*
X191080693Y-112383209D01*
X191086058Y-112352362D01*
X191088228Y-112304577D01*
X191088571Y-112251748D01*
X191087827Y-112185381D01*
X191084748Y-112141106D01*
X191078061Y-112112009D01*
X191066496Y-112091173D01*
X191057013Y-112080107D01*
X191012960Y-112052198D01*
X190962224Y-112048843D01*
X190913796Y-112070159D01*
X190904450Y-112078073D01*
X190888540Y-112095647D01*
X190878610Y-112116587D01*
X190873278Y-112147782D01*
X190871163Y-112196122D01*
X190870857Y-112245647D01*
X190769458Y-112245647D01*
X190772810Y-112158568D01*
X190784726Y-112090086D01*
X190807135Y-112038600D01*
X190842124Y-111998443D01*
X190869375Y-111977861D01*
X190918907Y-111955625D01*
X190976316Y-111945304D01*
X191029682Y-111948067D01*
X191059543Y-111959212D01*
X191071261Y-111962383D01*
X191079037Y-111950557D01*
X191084465Y-111918866D01*
X191088571Y-111870593D01*
X191093067Y-111816829D01*
X191099313Y-111784482D01*
X191110676Y-111765985D01*
X191130528Y-111753770D01*
X191143000Y-111748362D01*
X191190171Y-111728601D01*
X191190117Y-112065358D01*
X191190117Y-112065358D01*
G37*
X191190117Y-112065358D02*
X191189933Y-112173837D01*
X191189219Y-112257287D01*
X191187675Y-112319704D01*
X191185001Y-112365085D01*
X191180894Y-112397429D01*
X191175055Y-112420733D01*
X191167182Y-112438995D01*
X191161221Y-112449418D01*
X191111855Y-112505945D01*
X191049264Y-112541377D01*
X190980013Y-112554090D01*
X190910668Y-112542463D01*
X190869375Y-112521568D01*
X190826025Y-112485422D01*
X190796481Y-112441276D01*
X190778655Y-112383462D01*
X190770463Y-112306313D01*
X190769302Y-112249714D01*
X190769458Y-112245647D01*
X190870857Y-112245647D01*
X190871476Y-112310550D01*
X190874314Y-112353514D01*
X190880840Y-112381622D01*
X190892523Y-112401953D01*
X190906483Y-112417288D01*
X190953365Y-112446890D01*
X191003701Y-112449419D01*
X191051276Y-112424705D01*
X191054979Y-112421356D01*
X191070783Y-112403935D01*
X191080693Y-112383209D01*
X191086058Y-112352362D01*
X191088228Y-112304577D01*
X191088571Y-112251748D01*
X191087827Y-112185381D01*
X191084748Y-112141106D01*
X191078061Y-112112009D01*
X191066496Y-112091173D01*
X191057013Y-112080107D01*
X191012960Y-112052198D01*
X190962224Y-112048843D01*
X190913796Y-112070159D01*
X190904450Y-112078073D01*
X190888540Y-112095647D01*
X190878610Y-112116587D01*
X190873278Y-112147782D01*
X190871163Y-112196122D01*
X190870857Y-112245647D01*
X190769458Y-112245647D01*
X190772810Y-112158568D01*
X190784726Y-112090086D01*
X190807135Y-112038600D01*
X190842124Y-111998443D01*
X190869375Y-111977861D01*
X190918907Y-111955625D01*
X190976316Y-111945304D01*
X191029682Y-111948067D01*
X191059543Y-111959212D01*
X191071261Y-111962383D01*
X191079037Y-111950557D01*
X191084465Y-111918866D01*
X191088571Y-111870593D01*
X191093067Y-111816829D01*
X191099313Y-111784482D01*
X191110676Y-111765985D01*
X191130528Y-111753770D01*
X191143000Y-111748362D01*
X191190171Y-111728601D01*
X191190117Y-112065358D01*
G36*
X191779833Y-111958663D02*
X191782048Y-111996850D01*
X191783784Y-112054886D01*
X191784899Y-112128180D01*
X191785257Y-112205055D01*
X191785257Y-112465196D01*
X191739326Y-112511127D01*
X191707675Y-112539429D01*
X191679890Y-112550893D01*
X191641915Y-112550168D01*
X191626840Y-112548321D01*
X191579726Y-112542948D01*
X191540756Y-112539869D01*
X191531257Y-112539585D01*
X191499233Y-112541445D01*
X191453432Y-112546114D01*
X191435674Y-112548321D01*
X191392057Y-112551735D01*
X191362745Y-112544320D01*
X191333680Y-112521427D01*
X191323188Y-112511127D01*
X191277257Y-112465196D01*
X191277257Y-111978602D01*
X191314226Y-111961758D01*
X191346059Y-111949282D01*
X191364683Y-111944914D01*
X191369458Y-111958718D01*
X191373921Y-111997286D01*
X191377775Y-112056356D01*
X191380722Y-112131663D01*
X191382143Y-112195286D01*
X191386114Y-112445657D01*
X191420759Y-112450556D01*
X191452268Y-112447131D01*
X191467708Y-112436041D01*
X191472023Y-112415308D01*
X191475708Y-112371145D01*
X191478469Y-112309146D01*
X191480012Y-112234909D01*
X191480235Y-112196706D01*
X191480457Y-111976783D01*
X191526166Y-111960849D01*
X191558518Y-111950015D01*
X191576115Y-111944962D01*
X191576623Y-111944914D01*
X191578388Y-111958648D01*
X191580329Y-111996730D01*
X191582282Y-112054482D01*
X191584084Y-112127227D01*
X191585343Y-112195286D01*
X191589314Y-112445657D01*
X191676400Y-112445657D01*
X191680396Y-112217240D01*
X191684392Y-111988822D01*
X191726847Y-111966868D01*
X191758192Y-111951793D01*
X191776744Y-111944951D01*
X191777279Y-111944914D01*
X191779833Y-111958663D01*
X191779833Y-111958663D01*
G37*
X191779833Y-111958663D02*
X191782048Y-111996850D01*
X191783784Y-112054886D01*
X191784899Y-112128180D01*
X191785257Y-112205055D01*
X191785257Y-112465196D01*
X191739326Y-112511127D01*
X191707675Y-112539429D01*
X191679890Y-112550893D01*
X191641915Y-112550168D01*
X191626840Y-112548321D01*
X191579726Y-112542948D01*
X191540756Y-112539869D01*
X191531257Y-112539585D01*
X191499233Y-112541445D01*
X191453432Y-112546114D01*
X191435674Y-112548321D01*
X191392057Y-112551735D01*
X191362745Y-112544320D01*
X191333680Y-112521427D01*
X191323188Y-112511127D01*
X191277257Y-112465196D01*
X191277257Y-111978602D01*
X191314226Y-111961758D01*
X191346059Y-111949282D01*
X191364683Y-111944914D01*
X191369458Y-111958718D01*
X191373921Y-111997286D01*
X191377775Y-112056356D01*
X191380722Y-112131663D01*
X191382143Y-112195286D01*
X191386114Y-112445657D01*
X191420759Y-112450556D01*
X191452268Y-112447131D01*
X191467708Y-112436041D01*
X191472023Y-112415308D01*
X191475708Y-112371145D01*
X191478469Y-112309146D01*
X191480012Y-112234909D01*
X191480235Y-112196706D01*
X191480457Y-111976783D01*
X191526166Y-111960849D01*
X191558518Y-111950015D01*
X191576115Y-111944962D01*
X191576623Y-111944914D01*
X191578388Y-111958648D01*
X191580329Y-111996730D01*
X191582282Y-112054482D01*
X191584084Y-112127227D01*
X191585343Y-112195286D01*
X191589314Y-112445657D01*
X191676400Y-112445657D01*
X191680396Y-112217240D01*
X191684392Y-111988822D01*
X191726847Y-111966868D01*
X191758192Y-111951793D01*
X191776744Y-111944951D01*
X191777279Y-111944914D01*
X191779833Y-111958663D01*
G36*
X192144876Y-111956335D02*
X192186667Y-111975344D01*
X192219469Y-111998378D01*
X192243503Y-112024133D01*
X192260097Y-112057358D01*
X192270577Y-112102800D01*
X192276271Y-112165207D01*
X192278507Y-112249327D01*
X192278743Y-112304721D01*
X192278743Y-112520826D01*
X192241774Y-112537670D01*
X192212656Y-112549981D01*
X192198231Y-112554514D01*
X192195472Y-112541025D01*
X192193282Y-112504653D01*
X192191942Y-112451542D01*
X192191657Y-112409372D01*
X192190434Y-112348447D01*
X192187136Y-112300115D01*
X192182321Y-112270518D01*
X192178496Y-112264229D01*
X192152783Y-112270652D01*
X192112418Y-112287125D01*
X192065679Y-112309458D01*
X192020845Y-112333457D01*
X191986193Y-112354930D01*
X191970002Y-112369685D01*
X191969938Y-112369845D01*
X191971330Y-112397152D01*
X191983818Y-112423219D01*
X192005743Y-112444392D01*
X192037743Y-112451474D01*
X192065092Y-112450649D01*
X192103826Y-112450042D01*
X192124158Y-112459116D01*
X192136369Y-112483092D01*
X192137909Y-112487613D01*
X192143203Y-112521806D01*
X192129047Y-112542568D01*
X192092148Y-112552462D01*
X192052289Y-112554292D01*
X191980562Y-112540727D01*
X191943432Y-112521355D01*
X191897576Y-112475845D01*
X191873256Y-112419983D01*
X191871073Y-112360957D01*
X191891629Y-112305953D01*
X191922549Y-112271486D01*
X191953420Y-112252189D01*
X192001942Y-112227759D01*
X192058485Y-112202985D01*
X192067910Y-112199199D01*
X192130019Y-112171791D01*
X192165822Y-112147634D01*
X192177337Y-112123619D01*
X192166580Y-112096635D01*
X192148114Y-112075543D01*
X192104469Y-112049572D01*
X192056446Y-112047624D01*
X192012406Y-112067637D01*
X191980709Y-112107551D01*
X191976549Y-112117848D01*
X191952327Y-112155724D01*
X191916965Y-112183842D01*
X191872343Y-112206917D01*
X191872343Y-112141485D01*
X191874969Y-112101506D01*
X191886230Y-112069997D01*
X191911199Y-112036378D01*
X191935169Y-112010484D01*
X191972441Y-111973817D01*
X192001401Y-111954121D01*
X192032505Y-111946220D01*
X192067713Y-111944914D01*
X192144876Y-111956335D01*
X192144876Y-111956335D01*
G37*
X192144876Y-111956335D02*
X192186667Y-111975344D01*
X192219469Y-111998378D01*
X192243503Y-112024133D01*
X192260097Y-112057358D01*
X192270577Y-112102800D01*
X192276271Y-112165207D01*
X192278507Y-112249327D01*
X192278743Y-112304721D01*
X192278743Y-112520826D01*
X192241774Y-112537670D01*
X192212656Y-112549981D01*
X192198231Y-112554514D01*
X192195472Y-112541025D01*
X192193282Y-112504653D01*
X192191942Y-112451542D01*
X192191657Y-112409372D01*
X192190434Y-112348447D01*
X192187136Y-112300115D01*
X192182321Y-112270518D01*
X192178496Y-112264229D01*
X192152783Y-112270652D01*
X192112418Y-112287125D01*
X192065679Y-112309458D01*
X192020845Y-112333457D01*
X191986193Y-112354930D01*
X191970002Y-112369685D01*
X191969938Y-112369845D01*
X191971330Y-112397152D01*
X191983818Y-112423219D01*
X192005743Y-112444392D01*
X192037743Y-112451474D01*
X192065092Y-112450649D01*
X192103826Y-112450042D01*
X192124158Y-112459116D01*
X192136369Y-112483092D01*
X192137909Y-112487613D01*
X192143203Y-112521806D01*
X192129047Y-112542568D01*
X192092148Y-112552462D01*
X192052289Y-112554292D01*
X191980562Y-112540727D01*
X191943432Y-112521355D01*
X191897576Y-112475845D01*
X191873256Y-112419983D01*
X191871073Y-112360957D01*
X191891629Y-112305953D01*
X191922549Y-112271486D01*
X191953420Y-112252189D01*
X192001942Y-112227759D01*
X192058485Y-112202985D01*
X192067910Y-112199199D01*
X192130019Y-112171791D01*
X192165822Y-112147634D01*
X192177337Y-112123619D01*
X192166580Y-112096635D01*
X192148114Y-112075543D01*
X192104469Y-112049572D01*
X192056446Y-112047624D01*
X192012406Y-112067637D01*
X191980709Y-112107551D01*
X191976549Y-112117848D01*
X191952327Y-112155724D01*
X191916965Y-112183842D01*
X191872343Y-112206917D01*
X191872343Y-112141485D01*
X191874969Y-112101506D01*
X191886230Y-112069997D01*
X191911199Y-112036378D01*
X191935169Y-112010484D01*
X191972441Y-111973817D01*
X192001401Y-111954121D01*
X192032505Y-111946220D01*
X192067713Y-111944914D01*
X192144876Y-111956335D01*
G36*
X192652600Y-111958752D02*
X192669948Y-111966334D01*
X192711356Y-111999128D01*
X192746765Y-112046547D01*
X192768664Y-112097151D01*
X192772229Y-112122098D01*
X192760279Y-112156927D01*
X192734067Y-112175357D01*
X192705964Y-112186516D01*
X192693095Y-112188572D01*
X192686829Y-112173649D01*
X192674456Y-112141175D01*
X192669028Y-112126502D01*
X192638590Y-112075744D01*
X192594520Y-112050427D01*
X192538010Y-112051206D01*
X192533825Y-112052203D01*
X192503655Y-112066507D01*
X192481476Y-112094393D01*
X192466327Y-112139287D01*
X192457250Y-112204615D01*
X192453286Y-112293804D01*
X192452914Y-112341261D01*
X192452730Y-112416071D01*
X192451522Y-112467069D01*
X192448309Y-112499471D01*
X192442109Y-112518495D01*
X192431940Y-112529356D01*
X192416819Y-112537272D01*
X192415946Y-112537670D01*
X192386828Y-112549981D01*
X192372403Y-112554514D01*
X192370186Y-112540809D01*
X192368289Y-112502925D01*
X192366847Y-112445715D01*
X192365998Y-112374027D01*
X192365829Y-112321565D01*
X192366692Y-112220047D01*
X192370070Y-112143032D01*
X192377142Y-112086023D01*
X192389088Y-112044526D01*
X192407090Y-112014043D01*
X192432327Y-111990080D01*
X192457247Y-111973355D01*
X192517171Y-111951097D01*
X192586911Y-111946076D01*
X192652600Y-111958752D01*
X192652600Y-111958752D01*
G37*
X192652600Y-111958752D02*
X192669948Y-111966334D01*
X192711356Y-111999128D01*
X192746765Y-112046547D01*
X192768664Y-112097151D01*
X192772229Y-112122098D01*
X192760279Y-112156927D01*
X192734067Y-112175357D01*
X192705964Y-112186516D01*
X192693095Y-112188572D01*
X192686829Y-112173649D01*
X192674456Y-112141175D01*
X192669028Y-112126502D01*
X192638590Y-112075744D01*
X192594520Y-112050427D01*
X192538010Y-112051206D01*
X192533825Y-112052203D01*
X192503655Y-112066507D01*
X192481476Y-112094393D01*
X192466327Y-112139287D01*
X192457250Y-112204615D01*
X192453286Y-112293804D01*
X192452914Y-112341261D01*
X192452730Y-112416071D01*
X192451522Y-112467069D01*
X192448309Y-112499471D01*
X192442109Y-112518495D01*
X192431940Y-112529356D01*
X192416819Y-112537272D01*
X192415946Y-112537670D01*
X192386828Y-112549981D01*
X192372403Y-112554514D01*
X192370186Y-112540809D01*
X192368289Y-112502925D01*
X192366847Y-112445715D01*
X192365998Y-112374027D01*
X192365829Y-112321565D01*
X192366692Y-112220047D01*
X192370070Y-112143032D01*
X192377142Y-112086023D01*
X192389088Y-112044526D01*
X192407090Y-112014043D01*
X192432327Y-111990080D01*
X192457247Y-111973355D01*
X192517171Y-111951097D01*
X192586911Y-111946076D01*
X192652600Y-111958752D01*
G36*
X193153595Y-111966966D02*
X193211021Y-112004497D01*
X193238719Y-112038096D01*
X193260662Y-112099064D01*
X193262405Y-112147308D01*
X193258457Y-112211816D01*
X193109686Y-112276934D01*
X193037349Y-112310202D01*
X192990084Y-112336964D01*
X192965507Y-112360144D01*
X192961237Y-112382667D01*
X192974889Y-112407455D01*
X192989943Y-112423886D01*
X193033746Y-112450235D01*
X193081389Y-112452081D01*
X193125145Y-112431546D01*
X193157289Y-112390752D01*
X193163038Y-112376347D01*
X193190576Y-112331356D01*
X193222258Y-112312182D01*
X193265714Y-112295779D01*
X193265714Y-112357966D01*
X193261872Y-112400283D01*
X193246823Y-112435969D01*
X193215280Y-112476943D01*
X193210592Y-112482267D01*
X193175506Y-112518720D01*
X193145347Y-112538283D01*
X193107615Y-112547283D01*
X193076335Y-112550230D01*
X193020385Y-112550965D01*
X192980555Y-112541660D01*
X192955708Y-112527846D01*
X192916656Y-112497467D01*
X192889625Y-112464613D01*
X192872517Y-112423294D01*
X192863238Y-112367521D01*
X192859693Y-112291305D01*
X192859410Y-112252622D01*
X192860372Y-112206247D01*
X192948007Y-112206247D01*
X192949023Y-112231126D01*
X192951556Y-112235200D01*
X192968274Y-112229665D01*
X193004249Y-112215017D01*
X193052331Y-112194190D01*
X193062386Y-112189714D01*
X193123152Y-112158814D01*
X193156632Y-112131657D01*
X193163990Y-112106220D01*
X193146391Y-112080481D01*
X193131856Y-112069109D01*
X193079410Y-112046364D01*
X193030322Y-112050122D01*
X192989227Y-112077884D01*
X192960758Y-112127152D01*
X192951631Y-112166257D01*
X192948007Y-112206247D01*
X192860372Y-112206247D01*
X192861285Y-112162249D01*
X192868196Y-112095384D01*
X192881884Y-112046695D01*
X192904096Y-112010849D01*
X192936574Y-111982513D01*
X192950733Y-111973355D01*
X193015053Y-111949507D01*
X193085473Y-111948006D01*
X193153595Y-111966966D01*
X193153595Y-111966966D01*
G37*
X193153595Y-111966966D02*
X193211021Y-112004497D01*
X193238719Y-112038096D01*
X193260662Y-112099064D01*
X193262405Y-112147308D01*
X193258457Y-112211816D01*
X193109686Y-112276934D01*
X193037349Y-112310202D01*
X192990084Y-112336964D01*
X192965507Y-112360144D01*
X192961237Y-112382667D01*
X192974889Y-112407455D01*
X192989943Y-112423886D01*
X193033746Y-112450235D01*
X193081389Y-112452081D01*
X193125145Y-112431546D01*
X193157289Y-112390752D01*
X193163038Y-112376347D01*
X193190576Y-112331356D01*
X193222258Y-112312182D01*
X193265714Y-112295779D01*
X193265714Y-112357966D01*
X193261872Y-112400283D01*
X193246823Y-112435969D01*
X193215280Y-112476943D01*
X193210592Y-112482267D01*
X193175506Y-112518720D01*
X193145347Y-112538283D01*
X193107615Y-112547283D01*
X193076335Y-112550230D01*
X193020385Y-112550965D01*
X192980555Y-112541660D01*
X192955708Y-112527846D01*
X192916656Y-112497467D01*
X192889625Y-112464613D01*
X192872517Y-112423294D01*
X192863238Y-112367521D01*
X192859693Y-112291305D01*
X192859410Y-112252622D01*
X192860372Y-112206247D01*
X192948007Y-112206247D01*
X192949023Y-112231126D01*
X192951556Y-112235200D01*
X192968274Y-112229665D01*
X193004249Y-112215017D01*
X193052331Y-112194190D01*
X193062386Y-112189714D01*
X193123152Y-112158814D01*
X193156632Y-112131657D01*
X193163990Y-112106220D01*
X193146391Y-112080481D01*
X193131856Y-112069109D01*
X193079410Y-112046364D01*
X193030322Y-112050122D01*
X192989227Y-112077884D01*
X192960758Y-112127152D01*
X192951631Y-112166257D01*
X192948007Y-112206247D01*
X192860372Y-112206247D01*
X192861285Y-112162249D01*
X192868196Y-112095384D01*
X192881884Y-112046695D01*
X192904096Y-112010849D01*
X192936574Y-111982513D01*
X192950733Y-111973355D01*
X193015053Y-111949507D01*
X193085473Y-111948006D01*
X193153595Y-111966966D01*
G36*
X190103910Y-107242348D02*
X190182454Y-107242778D01*
X190239298Y-107243942D01*
X190278105Y-107246207D01*
X190302538Y-107249940D01*
X190316262Y-107255506D01*
X190322940Y-107263273D01*
X190326236Y-107273605D01*
X190326556Y-107274943D01*
X190331562Y-107299079D01*
X190340829Y-107346701D01*
X190353392Y-107412741D01*
X190368287Y-107492128D01*
X190384551Y-107579796D01*
X190385119Y-107582875D01*
X190401410Y-107668789D01*
X190416652Y-107744696D01*
X190429861Y-107806045D01*
X190440054Y-107848282D01*
X190446248Y-107866855D01*
X190446543Y-107867184D01*
X190464788Y-107876253D01*
X190502405Y-107891367D01*
X190551271Y-107909262D01*
X190551543Y-107909358D01*
X190613093Y-107932493D01*
X190685657Y-107961965D01*
X190754057Y-107991597D01*
X190757294Y-107993062D01*
X190868702Y-108043626D01*
X191115399Y-107875160D01*
X191191077Y-107823803D01*
X191259631Y-107777889D01*
X191317088Y-107740030D01*
X191359476Y-107712837D01*
X191382825Y-107698921D01*
X191385042Y-107697889D01*
X191402010Y-107702484D01*
X191433701Y-107724655D01*
X191481352Y-107765447D01*
X191546198Y-107825905D01*
X191612397Y-107890227D01*
X191676214Y-107953612D01*
X191733329Y-108011451D01*
X191780305Y-108060175D01*
X191813703Y-108096210D01*
X191830085Y-108115984D01*
X191830694Y-108117002D01*
X191832505Y-108130572D01*
X191825683Y-108152733D01*
X191808540Y-108186478D01*
X191779393Y-108234800D01*
X191736555Y-108300692D01*
X191679448Y-108385517D01*
X191628766Y-108460177D01*
X191583461Y-108527140D01*
X191546150Y-108582516D01*
X191519452Y-108622420D01*
X191505985Y-108642962D01*
X191505137Y-108644356D01*
X191506781Y-108664038D01*
X191519245Y-108702293D01*
X191540048Y-108751889D01*
X191547462Y-108767728D01*
X191579814Y-108838290D01*
X191614328Y-108918353D01*
X191642365Y-108987629D01*
X191662568Y-109039045D01*
X191678615Y-109078119D01*
X191687888Y-109098541D01*
X191689041Y-109100114D01*
X191706096Y-109102721D01*
X191746298Y-109109863D01*
X191804302Y-109120523D01*
X191874763Y-109133685D01*
X191952335Y-109148333D01*
X192031672Y-109163449D01*
X192107431Y-109178018D01*
X192174264Y-109191022D01*
X192226828Y-109201445D01*
X192259776Y-109208270D01*
X192267857Y-109210199D01*
X192276205Y-109214962D01*
X192282506Y-109225718D01*
X192287045Y-109246098D01*
X192290104Y-109279734D01*
X192291967Y-109330255D01*
X192292918Y-109401292D01*
X192293240Y-109496476D01*
X192293257Y-109535492D01*
X192293257Y-109852799D01*
X192217057Y-109867839D01*
X192174663Y-109875995D01*
X192111400Y-109887899D01*
X192034962Y-109902116D01*
X191953043Y-109917210D01*
X191930400Y-109921355D01*
X191854806Y-109936053D01*
X191788953Y-109950505D01*
X191738366Y-109963375D01*
X191708574Y-109973322D01*
X191703612Y-109976287D01*
X191691426Y-109997283D01*
X191673953Y-110037967D01*
X191654577Y-110090322D01*
X191650734Y-110101600D01*
X191625339Y-110171523D01*
X191593817Y-110250418D01*
X191562969Y-110321266D01*
X191562817Y-110321595D01*
X191511447Y-110432733D01*
X191680399Y-110681253D01*
X191849352Y-110929772D01*
X191632429Y-111147058D01*
X191566819Y-111211726D01*
X191506979Y-111268733D01*
X191456267Y-111315033D01*
X191418046Y-111347584D01*
X191395675Y-111363343D01*
X191392466Y-111364343D01*
X191373626Y-111356469D01*
X191335180Y-111334578D01*
X191281330Y-111301267D01*
X191216276Y-111259131D01*
X191145940Y-111211943D01*
X191074555Y-111163810D01*
X191010908Y-111121928D01*
X190959041Y-111088871D01*
X190922995Y-111067218D01*
X190906867Y-111059543D01*
X190887189Y-111066037D01*
X190849875Y-111083150D01*
X190802621Y-111107326D01*
X190797612Y-111110013D01*
X190733977Y-111141927D01*
X190690341Y-111157579D01*
X190663202Y-111157745D01*
X190649057Y-111143204D01*
X190648975Y-111143000D01*
X190641905Y-111125779D01*
X190625042Y-111084899D01*
X190599695Y-111023525D01*
X190567171Y-110944819D01*
X190528778Y-110851947D01*
X190485822Y-110748072D01*
X190444222Y-110647502D01*
X190398504Y-110536516D01*
X190356526Y-110433703D01*
X190319548Y-110342215D01*
X190288827Y-110265201D01*
X190265622Y-110205815D01*
X190251190Y-110167209D01*
X190246743Y-110152800D01*
X190257896Y-110136272D01*
X190287069Y-110109930D01*
X190325971Y-110080887D01*
X190436757Y-109989039D01*
X190523351Y-109883759D01*
X190584716Y-109767266D01*
X190619815Y-109641776D01*
X190627608Y-109509507D01*
X190621943Y-109448457D01*
X190591078Y-109321795D01*
X190537920Y-109209941D01*
X190465767Y-109114001D01*
X190377917Y-109035076D01*
X190277665Y-108974270D01*
X190168310Y-108932687D01*
X190053147Y-108911428D01*
X189935475Y-108911599D01*
X189818590Y-108934301D01*
X189705789Y-108980638D01*
X189600369Y-109051713D01*
X189556368Y-109091911D01*
X189471979Y-109195129D01*
X189413222Y-109307925D01*
X189379704Y-109427010D01*
X189371035Y-109549095D01*
X189386823Y-109670893D01*
X189426678Y-109789116D01*
X189490207Y-109900475D01*
X189577021Y-110001684D01*
X189674029Y-110080887D01*
X189714437Y-110111162D01*
X189742982Y-110137219D01*
X189753257Y-110152825D01*
X189747877Y-110169843D01*
X189732575Y-110210500D01*
X189708612Y-110271642D01*
X189677244Y-110350119D01*
X189639732Y-110442780D01*
X189597333Y-110546472D01*
X189555663Y-110647526D01*
X189509690Y-110758607D01*
X189467107Y-110861541D01*
X189429221Y-110953165D01*
X189397340Y-111030316D01*
X189372771Y-111089831D01*
X189356820Y-111128544D01*
X189350910Y-111143000D01*
X189336948Y-111157685D01*
X189309940Y-111157642D01*
X189266413Y-111142099D01*
X189202890Y-111110284D01*
X189202388Y-111110013D01*
X189154560Y-111085323D01*
X189115897Y-111067338D01*
X189094095Y-111059614D01*
X189093133Y-111059543D01*
X189076721Y-111067378D01*
X189040487Y-111089165D01*
X188988474Y-111122328D01*
X188924725Y-111164291D01*
X188854060Y-111211943D01*
X188782116Y-111260191D01*
X188717274Y-111302151D01*
X188663735Y-111335227D01*
X188625697Y-111356821D01*
X188607533Y-111364343D01*
X188590808Y-111354457D01*
X188557180Y-111326826D01*
X188510010Y-111284495D01*
X188452658Y-111230505D01*
X188388484Y-111167899D01*
X188367497Y-111146983D01*
X188150499Y-110929623D01*
X188315668Y-110687220D01*
X188365864Y-110612781D01*
X188409919Y-110545972D01*
X188445362Y-110490665D01*
X188469719Y-110450729D01*
X188480522Y-110430036D01*
X188480838Y-110428563D01*
X188475143Y-110409058D01*
X188459826Y-110369822D01*
X188437537Y-110317430D01*
X188421893Y-110282355D01*
X188392641Y-110215201D01*
X188365094Y-110147358D01*
X188343737Y-110090034D01*
X188337935Y-110072572D01*
X188321452Y-110025938D01*
X188305340Y-109989905D01*
X188296490Y-109976287D01*
X188276960Y-109967952D01*
X188234334Y-109956137D01*
X188174145Y-109942181D01*
X188101922Y-109927422D01*
X188069600Y-109921355D01*
X187987522Y-109906273D01*
X187908795Y-109891669D01*
X187841109Y-109878980D01*
X187792160Y-109869642D01*
X187782943Y-109867839D01*
X187706743Y-109852799D01*
X187706743Y-109535492D01*
X187706914Y-109431154D01*
X187707616Y-109352213D01*
X187709134Y-109295038D01*
X187711749Y-109255999D01*
X187715746Y-109231465D01*
X187721409Y-109217805D01*
X187729020Y-109211389D01*
X187732143Y-109210199D01*
X187750978Y-109205980D01*
X187792588Y-109197562D01*
X187851630Y-109185961D01*
X187922757Y-109172195D01*
X188000625Y-109157280D01*
X188079887Y-109142232D01*
X188155198Y-109128069D01*
X188221213Y-109115806D01*
X188272587Y-109106461D01*
X188303975Y-109101050D01*
X188310959Y-109100114D01*
X188317285Y-109087596D01*
X188331290Y-109054246D01*
X188350355Y-109006377D01*
X188357634Y-108987629D01*
X188386996Y-108915195D01*
X188421571Y-108835170D01*
X188452537Y-108767728D01*
X188475323Y-108716159D01*
X188490482Y-108673785D01*
X188495542Y-108647834D01*
X188494736Y-108644356D01*
X188484041Y-108627936D01*
X188459620Y-108591417D01*
X188424095Y-108538687D01*
X188380087Y-108473635D01*
X188330217Y-108400151D01*
X188320356Y-108385645D01*
X188262492Y-108299704D01*
X188219956Y-108234261D01*
X188191054Y-108186304D01*
X188174090Y-108152820D01*
X188167367Y-108130795D01*
X188169190Y-108117217D01*
X188169236Y-108117131D01*
X188183586Y-108099297D01*
X188215323Y-108064817D01*
X188261010Y-108017268D01*
X188317204Y-107960222D01*
X188380468Y-107897255D01*
X188387602Y-107890227D01*
X188467330Y-107813020D01*
X188528857Y-107756330D01*
X188573421Y-107719110D01*
X188602257Y-107700315D01*
X188614958Y-107697889D01*
X188633494Y-107708471D01*
X188671961Y-107732916D01*
X188726386Y-107768612D01*
X188792798Y-107812947D01*
X188867225Y-107863311D01*
X188884601Y-107875160D01*
X189131297Y-108043626D01*
X189242706Y-107993062D01*
X189310457Y-107963595D01*
X189383183Y-107933959D01*
X189445703Y-107910330D01*
X189448457Y-107909358D01*
X189497360Y-107891457D01*
X189535057Y-107876320D01*
X189553425Y-107867210D01*
X189553456Y-107867184D01*
X189559285Y-107850717D01*
X189569192Y-107810219D01*
X189582195Y-107750242D01*
X189597309Y-107675340D01*
X189613552Y-107590064D01*
X189614881Y-107582875D01*
X189631175Y-107495014D01*
X189646133Y-107415260D01*
X189658791Y-107348681D01*
X189668186Y-107300347D01*
X189673354Y-107275325D01*
X189673444Y-107274943D01*
X189676589Y-107264299D01*
X189682704Y-107256262D01*
X189695453Y-107250467D01*
X189718500Y-107246547D01*
X189755509Y-107244135D01*
X189810144Y-107242865D01*
X189886067Y-107242371D01*
X189986944Y-107242286D01*
X190000000Y-107242286D01*
X190103910Y-107242348D01*
X190103910Y-107242348D01*
G37*
X190103910Y-107242348D02*
X190182454Y-107242778D01*
X190239298Y-107243942D01*
X190278105Y-107246207D01*
X190302538Y-107249940D01*
X190316262Y-107255506D01*
X190322940Y-107263273D01*
X190326236Y-107273605D01*
X190326556Y-107274943D01*
X190331562Y-107299079D01*
X190340829Y-107346701D01*
X190353392Y-107412741D01*
X190368287Y-107492128D01*
X190384551Y-107579796D01*
X190385119Y-107582875D01*
X190401410Y-107668789D01*
X190416652Y-107744696D01*
X190429861Y-107806045D01*
X190440054Y-107848282D01*
X190446248Y-107866855D01*
X190446543Y-107867184D01*
X190464788Y-107876253D01*
X190502405Y-107891367D01*
X190551271Y-107909262D01*
X190551543Y-107909358D01*
X190613093Y-107932493D01*
X190685657Y-107961965D01*
X190754057Y-107991597D01*
X190757294Y-107993062D01*
X190868702Y-108043626D01*
X191115399Y-107875160D01*
X191191077Y-107823803D01*
X191259631Y-107777889D01*
X191317088Y-107740030D01*
X191359476Y-107712837D01*
X191382825Y-107698921D01*
X191385042Y-107697889D01*
X191402010Y-107702484D01*
X191433701Y-107724655D01*
X191481352Y-107765447D01*
X191546198Y-107825905D01*
X191612397Y-107890227D01*
X191676214Y-107953612D01*
X191733329Y-108011451D01*
X191780305Y-108060175D01*
X191813703Y-108096210D01*
X191830085Y-108115984D01*
X191830694Y-108117002D01*
X191832505Y-108130572D01*
X191825683Y-108152733D01*
X191808540Y-108186478D01*
X191779393Y-108234800D01*
X191736555Y-108300692D01*
X191679448Y-108385517D01*
X191628766Y-108460177D01*
X191583461Y-108527140D01*
X191546150Y-108582516D01*
X191519452Y-108622420D01*
X191505985Y-108642962D01*
X191505137Y-108644356D01*
X191506781Y-108664038D01*
X191519245Y-108702293D01*
X191540048Y-108751889D01*
X191547462Y-108767728D01*
X191579814Y-108838290D01*
X191614328Y-108918353D01*
X191642365Y-108987629D01*
X191662568Y-109039045D01*
X191678615Y-109078119D01*
X191687888Y-109098541D01*
X191689041Y-109100114D01*
X191706096Y-109102721D01*
X191746298Y-109109863D01*
X191804302Y-109120523D01*
X191874763Y-109133685D01*
X191952335Y-109148333D01*
X192031672Y-109163449D01*
X192107431Y-109178018D01*
X192174264Y-109191022D01*
X192226828Y-109201445D01*
X192259776Y-109208270D01*
X192267857Y-109210199D01*
X192276205Y-109214962D01*
X192282506Y-109225718D01*
X192287045Y-109246098D01*
X192290104Y-109279734D01*
X192291967Y-109330255D01*
X192292918Y-109401292D01*
X192293240Y-109496476D01*
X192293257Y-109535492D01*
X192293257Y-109852799D01*
X192217057Y-109867839D01*
X192174663Y-109875995D01*
X192111400Y-109887899D01*
X192034962Y-109902116D01*
X191953043Y-109917210D01*
X191930400Y-109921355D01*
X191854806Y-109936053D01*
X191788953Y-109950505D01*
X191738366Y-109963375D01*
X191708574Y-109973322D01*
X191703612Y-109976287D01*
X191691426Y-109997283D01*
X191673953Y-110037967D01*
X191654577Y-110090322D01*
X191650734Y-110101600D01*
X191625339Y-110171523D01*
X191593817Y-110250418D01*
X191562969Y-110321266D01*
X191562817Y-110321595D01*
X191511447Y-110432733D01*
X191680399Y-110681253D01*
X191849352Y-110929772D01*
X191632429Y-111147058D01*
X191566819Y-111211726D01*
X191506979Y-111268733D01*
X191456267Y-111315033D01*
X191418046Y-111347584D01*
X191395675Y-111363343D01*
X191392466Y-111364343D01*
X191373626Y-111356469D01*
X191335180Y-111334578D01*
X191281330Y-111301267D01*
X191216276Y-111259131D01*
X191145940Y-111211943D01*
X191074555Y-111163810D01*
X191010908Y-111121928D01*
X190959041Y-111088871D01*
X190922995Y-111067218D01*
X190906867Y-111059543D01*
X190887189Y-111066037D01*
X190849875Y-111083150D01*
X190802621Y-111107326D01*
X190797612Y-111110013D01*
X190733977Y-111141927D01*
X190690341Y-111157579D01*
X190663202Y-111157745D01*
X190649057Y-111143204D01*
X190648975Y-111143000D01*
X190641905Y-111125779D01*
X190625042Y-111084899D01*
X190599695Y-111023525D01*
X190567171Y-110944819D01*
X190528778Y-110851947D01*
X190485822Y-110748072D01*
X190444222Y-110647502D01*
X190398504Y-110536516D01*
X190356526Y-110433703D01*
X190319548Y-110342215D01*
X190288827Y-110265201D01*
X190265622Y-110205815D01*
X190251190Y-110167209D01*
X190246743Y-110152800D01*
X190257896Y-110136272D01*
X190287069Y-110109930D01*
X190325971Y-110080887D01*
X190436757Y-109989039D01*
X190523351Y-109883759D01*
X190584716Y-109767266D01*
X190619815Y-109641776D01*
X190627608Y-109509507D01*
X190621943Y-109448457D01*
X190591078Y-109321795D01*
X190537920Y-109209941D01*
X190465767Y-109114001D01*
X190377917Y-109035076D01*
X190277665Y-108974270D01*
X190168310Y-108932687D01*
X190053147Y-108911428D01*
X189935475Y-108911599D01*
X189818590Y-108934301D01*
X189705789Y-108980638D01*
X189600369Y-109051713D01*
X189556368Y-109091911D01*
X189471979Y-109195129D01*
X189413222Y-109307925D01*
X189379704Y-109427010D01*
X189371035Y-109549095D01*
X189386823Y-109670893D01*
X189426678Y-109789116D01*
X189490207Y-109900475D01*
X189577021Y-110001684D01*
X189674029Y-110080887D01*
X189714437Y-110111162D01*
X189742982Y-110137219D01*
X189753257Y-110152825D01*
X189747877Y-110169843D01*
X189732575Y-110210500D01*
X189708612Y-110271642D01*
X189677244Y-110350119D01*
X189639732Y-110442780D01*
X189597333Y-110546472D01*
X189555663Y-110647526D01*
X189509690Y-110758607D01*
X189467107Y-110861541D01*
X189429221Y-110953165D01*
X189397340Y-111030316D01*
X189372771Y-111089831D01*
X189356820Y-111128544D01*
X189350910Y-111143000D01*
X189336948Y-111157685D01*
X189309940Y-111157642D01*
X189266413Y-111142099D01*
X189202890Y-111110284D01*
X189202388Y-111110013D01*
X189154560Y-111085323D01*
X189115897Y-111067338D01*
X189094095Y-111059614D01*
X189093133Y-111059543D01*
X189076721Y-111067378D01*
X189040487Y-111089165D01*
X188988474Y-111122328D01*
X188924725Y-111164291D01*
X188854060Y-111211943D01*
X188782116Y-111260191D01*
X188717274Y-111302151D01*
X188663735Y-111335227D01*
X188625697Y-111356821D01*
X188607533Y-111364343D01*
X188590808Y-111354457D01*
X188557180Y-111326826D01*
X188510010Y-111284495D01*
X188452658Y-111230505D01*
X188388484Y-111167899D01*
X188367497Y-111146983D01*
X188150499Y-110929623D01*
X188315668Y-110687220D01*
X188365864Y-110612781D01*
X188409919Y-110545972D01*
X188445362Y-110490665D01*
X188469719Y-110450729D01*
X188480522Y-110430036D01*
X188480838Y-110428563D01*
X188475143Y-110409058D01*
X188459826Y-110369822D01*
X188437537Y-110317430D01*
X188421893Y-110282355D01*
X188392641Y-110215201D01*
X188365094Y-110147358D01*
X188343737Y-110090034D01*
X188337935Y-110072572D01*
X188321452Y-110025938D01*
X188305340Y-109989905D01*
X188296490Y-109976287D01*
X188276960Y-109967952D01*
X188234334Y-109956137D01*
X188174145Y-109942181D01*
X188101922Y-109927422D01*
X188069600Y-109921355D01*
X187987522Y-109906273D01*
X187908795Y-109891669D01*
X187841109Y-109878980D01*
X187792160Y-109869642D01*
X187782943Y-109867839D01*
X187706743Y-109852799D01*
X187706743Y-109535492D01*
X187706914Y-109431154D01*
X187707616Y-109352213D01*
X187709134Y-109295038D01*
X187711749Y-109255999D01*
X187715746Y-109231465D01*
X187721409Y-109217805D01*
X187729020Y-109211389D01*
X187732143Y-109210199D01*
X187750978Y-109205980D01*
X187792588Y-109197562D01*
X187851630Y-109185961D01*
X187922757Y-109172195D01*
X188000625Y-109157280D01*
X188079887Y-109142232D01*
X188155198Y-109128069D01*
X188221213Y-109115806D01*
X188272587Y-109106461D01*
X188303975Y-109101050D01*
X188310959Y-109100114D01*
X188317285Y-109087596D01*
X188331290Y-109054246D01*
X188350355Y-109006377D01*
X188357634Y-108987629D01*
X188386996Y-108915195D01*
X188421571Y-108835170D01*
X188452537Y-108767728D01*
X188475323Y-108716159D01*
X188490482Y-108673785D01*
X188495542Y-108647834D01*
X188494736Y-108644356D01*
X188484041Y-108627936D01*
X188459620Y-108591417D01*
X188424095Y-108538687D01*
X188380087Y-108473635D01*
X188330217Y-108400151D01*
X188320356Y-108385645D01*
X188262492Y-108299704D01*
X188219956Y-108234261D01*
X188191054Y-108186304D01*
X188174090Y-108152820D01*
X188167367Y-108130795D01*
X188169190Y-108117217D01*
X188169236Y-108117131D01*
X188183586Y-108099297D01*
X188215323Y-108064817D01*
X188261010Y-108017268D01*
X188317204Y-107960222D01*
X188380468Y-107897255D01*
X188387602Y-107890227D01*
X188467330Y-107813020D01*
X188528857Y-107756330D01*
X188573421Y-107719110D01*
X188602257Y-107700315D01*
X188614958Y-107697889D01*
X188633494Y-107708471D01*
X188671961Y-107732916D01*
X188726386Y-107768612D01*
X188792798Y-107812947D01*
X188867225Y-107863311D01*
X188884601Y-107875160D01*
X189131297Y-108043626D01*
X189242706Y-107993062D01*
X189310457Y-107963595D01*
X189383183Y-107933959D01*
X189445703Y-107910330D01*
X189448457Y-107909358D01*
X189497360Y-107891457D01*
X189535057Y-107876320D01*
X189553425Y-107867210D01*
X189553456Y-107867184D01*
X189559285Y-107850717D01*
X189569192Y-107810219D01*
X189582195Y-107750242D01*
X189597309Y-107675340D01*
X189613552Y-107590064D01*
X189614881Y-107582875D01*
X189631175Y-107495014D01*
X189646133Y-107415260D01*
X189658791Y-107348681D01*
X189668186Y-107300347D01*
X189673354Y-107275325D01*
X189673444Y-107274943D01*
X189676589Y-107264299D01*
X189682704Y-107256262D01*
X189695453Y-107250467D01*
X189718500Y-107246547D01*
X189755509Y-107244135D01*
X189810144Y-107242865D01*
X189886067Y-107242371D01*
X189986944Y-107242286D01*
X190000000Y-107242286D01*
X190103910Y-107242348D01*
D13*
X175238095Y-86452381D02*
X175238095Y-87261905D01*
X175285714Y-87357143D01*
X175333333Y-87404762D01*
X175428571Y-87452381D01*
X175619048Y-87452381D01*
X175714286Y-87404762D01*
X175761905Y-87357143D01*
X175809524Y-87261905D01*
X175809524Y-86452381D01*
X176238095Y-86547619D02*
X176285714Y-86500000D01*
X176380952Y-86452381D01*
X176619048Y-86452381D01*
X176714286Y-86500000D01*
X176761905Y-86547619D01*
X176809524Y-86642857D01*
X176809524Y-86738095D01*
X176761905Y-86880952D01*
X176190476Y-87452381D01*
X176809524Y-87452381D01*
X176357143Y-107166666D02*
X176404762Y-107214285D01*
X176452381Y-107357142D01*
X176452381Y-107452380D01*
X176404762Y-107595238D01*
X176309524Y-107690476D01*
X176214286Y-107738095D01*
X176023810Y-107785714D01*
X175880952Y-107785714D01*
X175690476Y-107738095D01*
X175595238Y-107690476D01*
X175500000Y-107595238D01*
X175452381Y-107452380D01*
X175452381Y-107357142D01*
X175500000Y-107214285D01*
X175547619Y-107166666D01*
X176452381Y-106214285D02*
X176452381Y-106785714D01*
X176452381Y-106500000D02*
X175452381Y-106500000D01*
X175595238Y-106595238D01*
X175690476Y-106690476D01*
X175738095Y-106785714D01*
X163833334Y-99357143D02*
X163785715Y-99404762D01*
X163642858Y-99452381D01*
X163547620Y-99452381D01*
X163404762Y-99404762D01*
X163309524Y-99309524D01*
X163261905Y-99214286D01*
X163214286Y-99023810D01*
X163214286Y-98880952D01*
X163261905Y-98690476D01*
X163309524Y-98595238D01*
X163404762Y-98500000D01*
X163547620Y-98452381D01*
X163642858Y-98452381D01*
X163785715Y-98500000D01*
X163833334Y-98547619D01*
X164214286Y-98547619D02*
X164261905Y-98500000D01*
X164357143Y-98452381D01*
X164595239Y-98452381D01*
X164690477Y-98500000D01*
X164738096Y-98547619D01*
X164785715Y-98642857D01*
X164785715Y-98738095D01*
X164738096Y-98880952D01*
X164166667Y-99452381D01*
X164785715Y-99452381D01*
X157357143Y-108214285D02*
X157404762Y-108261904D01*
X157452381Y-108404761D01*
X157452381Y-108499999D01*
X157404762Y-108642857D01*
X157309524Y-108738095D01*
X157214286Y-108785714D01*
X157023810Y-108833333D01*
X156880952Y-108833333D01*
X156690476Y-108785714D01*
X156595238Y-108738095D01*
X156500000Y-108642857D01*
X156452381Y-108499999D01*
X156452381Y-108404761D01*
X156500000Y-108261904D01*
X156547619Y-108214285D01*
X156452381Y-107595238D02*
X156452381Y-107404761D01*
X156500000Y-107309523D01*
X156595238Y-107214285D01*
X156785714Y-107166666D01*
X157119048Y-107166666D01*
X157309524Y-107214285D01*
X157404762Y-107309523D01*
X157452381Y-107404761D01*
X157452381Y-107595238D01*
X157404762Y-107690476D01*
X157309524Y-107785714D01*
X157119048Y-107833333D01*
X156785714Y-107833333D01*
X156595238Y-107785714D01*
X156500000Y-107690476D01*
X156452381Y-107595238D01*
X157452381Y-106738095D02*
X156452381Y-106738095D01*
X157452381Y-106166666D01*
X156452381Y-106166666D01*
X157452381Y-105166666D02*
X157452381Y-105738095D01*
X157452381Y-105452381D02*
X156452381Y-105452381D01*
X156595238Y-105547619D01*
X156690476Y-105642857D01*
X156738095Y-105738095D01*
X172775714Y-74112381D02*
X172775714Y-73112381D01*
X173013809Y-73112381D01*
X173156667Y-73160000D01*
X173251905Y-73255238D01*
X173299524Y-73350476D01*
X173347143Y-73540952D01*
X173347143Y-73683810D01*
X173299524Y-73874286D01*
X173251905Y-73969524D01*
X173156667Y-74064762D01*
X173013809Y-74112381D01*
X172775714Y-74112381D01*
X173728095Y-74064762D02*
X173870952Y-74112381D01*
X174109048Y-74112381D01*
X174204286Y-74064762D01*
X174251905Y-74017143D01*
X174299524Y-73921905D01*
X174299524Y-73826667D01*
X174251905Y-73731429D01*
X174204286Y-73683810D01*
X174109048Y-73636190D01*
X173918571Y-73588571D01*
X173823333Y-73540952D01*
X173775714Y-73493333D01*
X173728095Y-73398095D01*
X173728095Y-73302857D01*
X173775714Y-73207619D01*
X173823333Y-73160000D01*
X173918571Y-73112381D01*
X174156667Y-73112381D01*
X174299524Y-73160000D01*
X175251905Y-74112381D02*
X174680476Y-74112381D01*
X174966190Y-74112381D02*
X174966190Y-73112381D01*
X174870952Y-73255238D01*
X174775714Y-73350476D01*
X174680476Y-73398095D01*
X190952381Y-89003095D02*
X189952381Y-89003095D01*
X189952381Y-88622142D01*
X190000000Y-88526904D01*
X190047619Y-88479285D01*
X190142857Y-88431666D01*
X190285714Y-88431666D01*
X190380952Y-88479285D01*
X190428571Y-88526904D01*
X190476190Y-88622142D01*
X190476190Y-89003095D01*
X190952381Y-87479285D02*
X190952381Y-88050714D01*
X190952381Y-87765000D02*
X189952381Y-87765000D01*
X190095238Y-87860238D01*
X190190476Y-87955476D01*
X190238095Y-88050714D01*
X187452381Y-102166666D02*
X186976190Y-102500000D01*
X187452381Y-102738095D02*
X186452381Y-102738095D01*
X186452381Y-102357142D01*
X186500000Y-102261904D01*
X186547619Y-102214285D01*
X186642857Y-102166666D01*
X186785714Y-102166666D01*
X186880952Y-102214285D01*
X186928571Y-102261904D01*
X186976190Y-102357142D01*
X186976190Y-102738095D01*
X187452381Y-101214285D02*
X187452381Y-101785714D01*
X187452381Y-101500000D02*
X186452381Y-101500000D01*
X186595238Y-101595238D01*
X186690476Y-101690476D01*
X186738095Y-101785714D01*
X158833334Y-74452381D02*
X158500000Y-73976190D01*
X158261905Y-74452381D02*
X158261905Y-73452381D01*
X158642858Y-73452381D01*
X158738096Y-73500000D01*
X158785715Y-73547619D01*
X158833334Y-73642857D01*
X158833334Y-73785714D01*
X158785715Y-73880952D01*
X158738096Y-73928571D01*
X158642858Y-73976190D01*
X158261905Y-73976190D01*
X159214286Y-73547619D02*
X159261905Y-73500000D01*
X159357143Y-73452381D01*
X159595239Y-73452381D01*
X159690477Y-73500000D01*
X159738096Y-73547619D01*
X159785715Y-73642857D01*
X159785715Y-73738095D01*
X159738096Y-73880952D01*
X159166667Y-74452381D01*
X159785715Y-74452381D01*
X189904762Y-82512381D02*
X189571428Y-82036190D01*
X189333333Y-82512381D02*
X189333333Y-81512381D01*
X189714286Y-81512381D01*
X189809524Y-81560000D01*
X189857143Y-81607619D01*
X189904762Y-81702857D01*
X189904762Y-81845714D01*
X189857143Y-81940952D01*
X189809524Y-81988571D01*
X189714286Y-82036190D01*
X189333333Y-82036190D01*
X190190476Y-81512381D02*
X190523809Y-82512381D01*
X190857143Y-81512381D01*
X191714286Y-82512381D02*
X191142857Y-82512381D01*
X191428571Y-82512381D02*
X191428571Y-81512381D01*
X191333333Y-81655238D01*
X191238095Y-81750476D01*
X191142857Y-81798095D01*
X158452381Y-91761905D02*
X159261905Y-91761905D01*
X159357143Y-91714286D01*
X159404762Y-91666667D01*
X159452381Y-91571429D01*
X159452381Y-91380952D01*
X159404762Y-91285714D01*
X159357143Y-91238095D01*
X159261905Y-91190476D01*
X158452381Y-91190476D01*
X159452381Y-90190476D02*
X159452381Y-90761905D01*
X159452381Y-90476191D02*
X158452381Y-90476191D01*
X158595238Y-90571429D01*
X158690476Y-90666667D01*
X158738095Y-90761905D01*
X157666667Y-82404762D02*
X157809524Y-82452381D01*
X158047620Y-82452381D01*
X158142858Y-82404762D01*
X158190477Y-82357143D01*
X158238096Y-82261905D01*
X158238096Y-82166667D01*
X158190477Y-82071429D01*
X158142858Y-82023810D01*
X158047620Y-81976190D01*
X157857143Y-81928571D01*
X157761905Y-81880952D01*
X157714286Y-81833333D01*
X157666667Y-81738095D01*
X157666667Y-81642857D01*
X157714286Y-81547619D01*
X157761905Y-81500000D01*
X157857143Y-81452381D01*
X158095239Y-81452381D01*
X158238096Y-81500000D01*
X158571429Y-81452381D02*
X158809524Y-82452381D01*
X159000001Y-81738095D01*
X159190477Y-82452381D01*
X159428572Y-81452381D01*
X160333334Y-82452381D02*
X159761905Y-82452381D01*
X160047619Y-82452381D02*
X160047619Y-81452381D01*
X159952381Y-81595238D01*
X159857143Y-81690476D01*
X159761905Y-81738095D01*
X180776667Y-109307381D02*
X180776667Y-110021667D01*
X180729047Y-110164524D01*
X180633809Y-110259762D01*
X180490952Y-110307381D01*
X180395714Y-110307381D01*
X181252857Y-110307381D02*
X181252857Y-109307381D01*
X181633810Y-109307381D01*
X181729048Y-109355000D01*
X181776667Y-109402619D01*
X181824286Y-109497857D01*
X181824286Y-109640714D01*
X181776667Y-109735952D01*
X181729048Y-109783571D01*
X181633810Y-109831190D01*
X181252857Y-109831190D01*
X182776667Y-110307381D02*
X182205238Y-110307381D01*
X182490952Y-110307381D02*
X182490952Y-109307381D01*
X182395714Y-109450238D01*
X182300476Y-109545476D01*
X182205238Y-109593095D01*
X192238095Y-95122381D02*
X192238095Y-95931905D01*
X192285714Y-96027143D01*
X192333333Y-96074762D01*
X192428571Y-96122381D01*
X192619048Y-96122381D01*
X192714286Y-96074762D01*
X192761905Y-96027143D01*
X192809524Y-95931905D01*
X192809524Y-95122381D01*
X193190476Y-95122381D02*
X193809524Y-95122381D01*
X193476190Y-95503333D01*
X193619048Y-95503333D01*
X193714286Y-95550952D01*
X193761905Y-95598571D01*
X193809524Y-95693810D01*
X193809524Y-95931905D01*
X193761905Y-96027143D01*
X193714286Y-96074762D01*
X193619048Y-96122381D01*
X193333333Y-96122381D01*
X193238095Y-96074762D01*
X193190476Y-96027143D01*
%LPC*%
D15*
X168300000Y-83000000D03*
X168300000Y-85000000D03*
X168300000Y-87000000D03*
X168300000Y-89000000D03*
X168300000Y-91000000D03*
X168300000Y-93000000D03*
X168300000Y-95000000D03*
X168300000Y-97000000D03*
X183700000Y-97000000D03*
X183700000Y-95000000D03*
X183700000Y-93000000D03*
X183700000Y-91000000D03*
X183700000Y-89000000D03*
X183700000Y-87000000D03*
X183700000Y-85000000D03*
X183700000Y-83000000D03*
D16*
X170990000Y-98700000D03*
X172990000Y-98700000D03*
X174990000Y-98700000D03*
X176990000Y-98700000D03*
X178990000Y-98700000D03*
X180990000Y-98700000D03*
D17*
X173000000Y-104850000D03*
X173000000Y-109150000D03*
D18*
X164950000Y-97000000D03*
X163050000Y-97000000D03*
D19*
X167000000Y-107000000D03*
D20*
X161000000Y-107000000D03*
X164000000Y-111700000D03*
D21*
X193000000Y-71000000D03*
D22*
X190460000Y-71000000D03*
X187920000Y-71000000D03*
X185380000Y-71000000D03*
X182840000Y-71000000D03*
X180300000Y-71000000D03*
X177760000Y-71000000D03*
X175220000Y-71000000D03*
X172680000Y-71000000D03*
X170140000Y-71000000D03*
X167600000Y-71000000D03*
X165060000Y-71000000D03*
X162520000Y-71000000D03*
X159980000Y-71000000D03*
X157440000Y-71000000D03*
X154900000Y-71000000D03*
D23*
X193000000Y-91000000D03*
D24*
X193000000Y-88460000D03*
X193000000Y-85920000D03*
D25*
X189000000Y-103350000D03*
X189000000Y-100650000D03*
D26*
X157650000Y-76000000D03*
X160350000Y-76000000D03*
D27*
X193000000Y-80000000D03*
X188000000Y-77500000D03*
X193000000Y-75000000D03*
D28*
X155850000Y-91000000D03*
D29*
X162150000Y-91000000D03*
X162150000Y-88700000D03*
X162150000Y-93300000D03*
D30*
X162150000Y-83900000D03*
X155850000Y-83900000D03*
X162150000Y-80100000D03*
X155850000Y-80100000D03*
D21*
X184000000Y-107000000D03*
D22*
X181460000Y-107000000D03*
X178920000Y-107000000D03*
D21*
X193000000Y-98000000D03*
D22*
X193000000Y-100540000D03*
X193000000Y-103080000D03*
X193000000Y-105620000D03*
M02*
