M48
;DRILL file {KiCad 4.0.5+dfsg1-4} date Sat Dec 16 07:09:31 2017
;FORMAT={-:-/ absolute / inch / decimal}
FMAT,2
INCH,TZ
T1C0.016
T2C0.035
T3C0.039
T4C0.040
T5C0.063
%
G90
G05
M72
T1
X6.2598Y-3.1496
X6.4961Y-3.5433
X6.7323Y-3.4646
X6.7717Y-3.5039
X6.811Y-3.5433
X6.8504Y-3.5827
X6.9291Y-3.7795
X7.126Y-3.5827
X7.1654Y-2.874
X7.2441Y-2.874
X7.3228Y-3.4646
X7.3622Y-4.1339
X7.4409Y-2.874
T2
X7.4016Y-3.0512
X7.5984Y-2.9528
X7.5984Y-3.1496
T3
X6.0984Y-2.7953
X6.1984Y-2.7953
X6.2984Y-2.7953
X6.3984Y-2.7953
X6.4984Y-2.7953
X6.5984Y-2.7953
X6.6984Y-2.7953
X6.7984Y-2.7953
X6.8984Y-2.7953
X6.9984Y-2.7953
X7.0441Y-4.2126
X7.0984Y-2.7953
X7.1441Y-4.2126
X7.1984Y-2.7953
X7.2441Y-4.2126
X7.2984Y-2.7953
X7.3984Y-2.7953
X7.4984Y-2.7953
X7.5984Y-2.7953
X7.5984Y-3.8583
X7.5984Y-3.9583
X7.5984Y-4.0583
X7.5984Y-4.1583
T4
X7.5984Y-3.3827
X7.5984Y-3.4827
X7.5984Y-3.5827
T5
X6.3386Y-4.2126
X6.4567Y-4.3976
X6.5748Y-4.2126
T0
M30
