G04 #@! TF.FileFunction,Copper,L1,Top,Signal*
%FSLAX46Y46*%
G04 Gerber Fmt 4.6, Leading zero omitted, Abs format (unit mm)*
G04 Created by KiCad (PCBNEW 4.0.5+dfsg1-4) date Sat Dec 16 07:09:28 2017*
%MOMM*%
%LPD*%
G01*
G04 APERTURE LIST*
%ADD10C,0.100000*%
%ADD11R,2.500000X1.100000*%
%ADD12R,1.100000X2.500000*%
%ADD13R,2.500000X3.200000*%
%ADD14R,1.200000X0.750000*%
%ADD15R,2.600000X2.600000*%
%ADD16C,2.600000*%
%ADD17R,1.700000X1.700000*%
%ADD18O,1.700000X1.700000*%
%ADD19R,2.032000X1.727200*%
%ADD20O,2.032000X1.727200*%
%ADD21R,1.300000X1.500000*%
%ADD22R,1.500000X1.300000*%
%ADD23C,1.620000*%
%ADD24R,2.000000X3.800000*%
%ADD25R,2.000000X1.500000*%
%ADD26R,1.700000X1.000000*%
%ADD27C,0.600000*%
%ADD28C,0.250000*%
%ADD29C,0.500000*%
%ADD30C,0.254000*%
G04 APERTURE END LIST*
D10*
D11*
X168300000Y-83000000D03*
X168300000Y-85000000D03*
X168300000Y-87000000D03*
X168300000Y-89000000D03*
X168300000Y-91000000D03*
X168300000Y-93000000D03*
X168300000Y-95000000D03*
X168300000Y-97000000D03*
X183700000Y-97000000D03*
X183700000Y-95000000D03*
X183700000Y-93000000D03*
X183700000Y-91000000D03*
X183700000Y-89000000D03*
X183700000Y-87000000D03*
X183700000Y-85000000D03*
X183700000Y-83000000D03*
D12*
X170990000Y-98700000D03*
X172990000Y-98700000D03*
X174990000Y-98700000D03*
X176990000Y-98700000D03*
X178990000Y-98700000D03*
X180990000Y-98700000D03*
D13*
X173000000Y-104850000D03*
X173000000Y-109150000D03*
D14*
X164950000Y-97000000D03*
X163050000Y-97000000D03*
D15*
X167000000Y-107000000D03*
D16*
X161000000Y-107000000D03*
X164000000Y-111700000D03*
D17*
X193000000Y-71000000D03*
D18*
X190460000Y-71000000D03*
X187920000Y-71000000D03*
X185380000Y-71000000D03*
X182840000Y-71000000D03*
X180300000Y-71000000D03*
X177760000Y-71000000D03*
X175220000Y-71000000D03*
X172680000Y-71000000D03*
X170140000Y-71000000D03*
X167600000Y-71000000D03*
X165060000Y-71000000D03*
X162520000Y-71000000D03*
X159980000Y-71000000D03*
X157440000Y-71000000D03*
X154900000Y-71000000D03*
D19*
X193000000Y-91000000D03*
D20*
X193000000Y-88460000D03*
X193000000Y-85920000D03*
D21*
X189000000Y-103350000D03*
X189000000Y-100650000D03*
D22*
X157650000Y-76000000D03*
X160350000Y-76000000D03*
D23*
X193000000Y-80000000D03*
X188000000Y-77500000D03*
X193000000Y-75000000D03*
D24*
X155850000Y-91000000D03*
D25*
X162150000Y-91000000D03*
X162150000Y-88700000D03*
X162150000Y-93300000D03*
D26*
X162150000Y-83900000D03*
X155850000Y-83900000D03*
X162150000Y-80100000D03*
X155850000Y-80100000D03*
D17*
X184000000Y-107000000D03*
D18*
X181460000Y-107000000D03*
X178920000Y-107000000D03*
D17*
X193000000Y-98000000D03*
D18*
X193000000Y-100540000D03*
X193000000Y-103080000D03*
X193000000Y-105620000D03*
D27*
X189000000Y-73000000D03*
X184000000Y-73000000D03*
X182000000Y-73000000D03*
X159000000Y-80000000D03*
X165000000Y-90000000D03*
X186000000Y-88000000D03*
X181000000Y-91000000D03*
X174000000Y-91000000D03*
X173000000Y-90000000D03*
X172000000Y-89000000D03*
X171000000Y-88000000D03*
X187000000Y-105000000D03*
X176000000Y-96000000D03*
D28*
X193000000Y-80000000D02*
X189000000Y-76000000D01*
X182840000Y-72840000D02*
X182840000Y-71000000D01*
X186000000Y-76000000D02*
X182840000Y-72840000D01*
X189000000Y-76000000D02*
X186000000Y-76000000D01*
X193000000Y-71000000D02*
X193000000Y-72000000D01*
X190000000Y-77000000D02*
X193000000Y-80000000D01*
X190000000Y-75000000D02*
X190000000Y-77000000D01*
X193000000Y-72000000D02*
X190000000Y-75000000D01*
D29*
X160350000Y-76000000D02*
X164000000Y-76000000D01*
X184000000Y-73000000D02*
X189000000Y-73000000D01*
X167000000Y-73000000D02*
X182000000Y-73000000D01*
X164000000Y-76000000D02*
X167000000Y-73000000D01*
X160350000Y-76000000D02*
X160350000Y-78650000D01*
X160350000Y-78650000D02*
X159000000Y-80000000D01*
X162150000Y-88700000D02*
X163700000Y-88700000D01*
X163700000Y-88700000D02*
X165000000Y-90000000D01*
X173000000Y-104850000D02*
X169150000Y-104850000D01*
X169150000Y-104850000D02*
X167000000Y-107000000D01*
D28*
X188000000Y-71080000D02*
X187920000Y-71000000D01*
X183000000Y-89000000D02*
X185000000Y-89000000D01*
X185000000Y-89000000D02*
X186000000Y-88000000D01*
X182000000Y-93000000D02*
X183000000Y-93000000D01*
X181000000Y-92000000D02*
X182000000Y-93000000D01*
X181000000Y-91000000D02*
X181000000Y-92000000D01*
X169000000Y-95000000D02*
X170000000Y-95000000D01*
X170000000Y-95000000D02*
X174000000Y-91000000D01*
X169000000Y-93000000D02*
X170000000Y-93000000D01*
X170000000Y-93000000D02*
X173000000Y-90000000D01*
X169000000Y-91000000D02*
X170000000Y-91000000D01*
X170000000Y-91000000D02*
X172000000Y-89000000D01*
X169000000Y-89000000D02*
X170000000Y-89000000D01*
X170000000Y-89000000D02*
X171000000Y-88000000D01*
D29*
X157440000Y-71000000D02*
X157440000Y-75790000D01*
D28*
X157440000Y-75790000D02*
X157650000Y-76000000D01*
X157440000Y-75790000D02*
X157650000Y-76000000D01*
X169000000Y-97000000D02*
X170000000Y-97000000D01*
X187000000Y-105000000D02*
X188650000Y-103350000D01*
X171000000Y-96000000D02*
X176000000Y-96000000D01*
X170000000Y-97000000D02*
X171000000Y-96000000D01*
X188650000Y-103350000D02*
X189000000Y-103350000D01*
D29*
X162150000Y-91000000D02*
X164000000Y-91000000D01*
D28*
X167000000Y-97000000D02*
X169000000Y-97000000D01*
D29*
X166000000Y-96000000D02*
X167000000Y-97000000D01*
X166000000Y-93000000D02*
X166000000Y-96000000D01*
X164000000Y-91000000D02*
X166000000Y-93000000D01*
X162150000Y-91000000D02*
X155850000Y-91000000D01*
D28*
X155850000Y-91000000D02*
X158000000Y-91000000D01*
D29*
X158000000Y-91000000D02*
X159000000Y-90000000D01*
X159000000Y-90000000D02*
X159000000Y-88000000D01*
X159000000Y-88000000D02*
X160000000Y-87000000D01*
X160000000Y-87000000D02*
X169000000Y-87000000D01*
D28*
X163000000Y-91000000D02*
X162150000Y-91000000D01*
D29*
X164950000Y-97000000D02*
X169000000Y-97000000D01*
D28*
X184000000Y-107000000D02*
X184000000Y-106000000D01*
X185000000Y-91000000D02*
X183000000Y-91000000D01*
X187000000Y-93000000D02*
X185000000Y-91000000D01*
X187000000Y-103000000D02*
X187000000Y-93000000D01*
X184000000Y-106000000D02*
X187000000Y-103000000D01*
X183000000Y-85000000D02*
X189540000Y-85000000D01*
X189540000Y-85000000D02*
X193000000Y-88460000D01*
X183000000Y-83000000D02*
X190080000Y-83000000D01*
X190080000Y-83000000D02*
X193000000Y-85920000D01*
X192890000Y-100650000D02*
X193000000Y-100540000D01*
X192890000Y-100650000D02*
X193000000Y-100540000D01*
X189000000Y-100650000D02*
X192890000Y-100650000D01*
X189000000Y-100650000D02*
X189000000Y-89000000D01*
X187000000Y-87000000D02*
X183000000Y-87000000D01*
X189000000Y-89000000D02*
X187000000Y-87000000D01*
X162150000Y-83900000D02*
X155850000Y-83900000D01*
X169000000Y-83000000D02*
X163050000Y-83000000D01*
X163050000Y-83000000D02*
X162150000Y-83900000D01*
D30*
G36*
X155027000Y-70873000D02*
X155047000Y-70873000D01*
X155047000Y-71127000D01*
X155027000Y-71127000D01*
X155027000Y-72320155D01*
X155256890Y-72441476D01*
X155666924Y-72271645D01*
X156095183Y-71881358D01*
X156162298Y-71738447D01*
X156389946Y-72079147D01*
X156555000Y-72189432D01*
X156555000Y-74817417D01*
X156448559Y-74885910D01*
X156303569Y-75098110D01*
X156252560Y-75350000D01*
X156252560Y-76650000D01*
X156296838Y-76885317D01*
X156435910Y-77101441D01*
X156648110Y-77246431D01*
X156900000Y-77297440D01*
X158400000Y-77297440D01*
X158635317Y-77253162D01*
X158851441Y-77114090D01*
X158996431Y-76901890D01*
X158999081Y-76888803D01*
X159135910Y-77101441D01*
X159348110Y-77246431D01*
X159465000Y-77270102D01*
X159465000Y-78283421D01*
X158591164Y-79157256D01*
X158471057Y-79206883D01*
X158207808Y-79469673D01*
X158065162Y-79813201D01*
X158064838Y-80185167D01*
X158206883Y-80528943D01*
X158469673Y-80792192D01*
X158813201Y-80934838D01*
X159185167Y-80935162D01*
X159528943Y-80793117D01*
X159792192Y-80530327D01*
X159842566Y-80409014D01*
X159865829Y-80385750D01*
X160665000Y-80385750D01*
X160665000Y-80726310D01*
X160761673Y-80959699D01*
X160940302Y-81138327D01*
X161173691Y-81235000D01*
X161864250Y-81235000D01*
X162023000Y-81076250D01*
X162023000Y-80227000D01*
X162277000Y-80227000D01*
X162277000Y-81076250D01*
X162435750Y-81235000D01*
X163126309Y-81235000D01*
X163359698Y-81138327D01*
X163483037Y-81014988D01*
X192164617Y-81014988D01*
X192239980Y-81262144D01*
X192780834Y-81456916D01*
X193355055Y-81429886D01*
X193760020Y-81262144D01*
X193835383Y-81014988D01*
X193000000Y-80179605D01*
X192164617Y-81014988D01*
X163483037Y-81014988D01*
X163538327Y-80959699D01*
X163635000Y-80726310D01*
X163635000Y-80385750D01*
X163476250Y-80227000D01*
X162277000Y-80227000D01*
X162023000Y-80227000D01*
X160823750Y-80227000D01*
X160665000Y-80385750D01*
X159865829Y-80385750D01*
X160665000Y-79586579D01*
X160665000Y-79814250D01*
X160823750Y-79973000D01*
X162023000Y-79973000D01*
X162023000Y-79123750D01*
X162277000Y-79123750D01*
X162277000Y-79973000D01*
X163476250Y-79973000D01*
X163635000Y-79814250D01*
X163635000Y-79473690D01*
X163538327Y-79240301D01*
X163359698Y-79061673D01*
X163126309Y-78965000D01*
X162435750Y-78965000D01*
X162277000Y-79123750D01*
X162023000Y-79123750D01*
X161864250Y-78965000D01*
X161173691Y-78965000D01*
X161172221Y-78965609D01*
X161235000Y-78650000D01*
X161235000Y-77272038D01*
X161335317Y-77253162D01*
X161551441Y-77114090D01*
X161696431Y-76901890D01*
X161699851Y-76885000D01*
X163999995Y-76885000D01*
X164000000Y-76885001D01*
X164282484Y-76828810D01*
X164338675Y-76817633D01*
X164625790Y-76625790D01*
X166751579Y-74500000D01*
X167773000Y-74500000D01*
X167773000Y-80500000D01*
X167781685Y-80546159D01*
X167808965Y-80588553D01*
X167850590Y-80616994D01*
X167900000Y-80627000D01*
X184100000Y-80627000D01*
X184146159Y-80618315D01*
X184188553Y-80591035D01*
X184216994Y-80549410D01*
X184227000Y-80500000D01*
X184227000Y-79780834D01*
X191543084Y-79780834D01*
X191570114Y-80355055D01*
X191737856Y-80760020D01*
X191985012Y-80835383D01*
X192820395Y-80000000D01*
X191985012Y-79164617D01*
X191737856Y-79239980D01*
X191543084Y-79780834D01*
X184227000Y-79780834D01*
X184227000Y-78985012D01*
X192164617Y-78985012D01*
X193000000Y-79820395D01*
X193835383Y-78985012D01*
X193760020Y-78737856D01*
X193219166Y-78543084D01*
X192644945Y-78570114D01*
X192239980Y-78737856D01*
X192164617Y-78985012D01*
X184227000Y-78985012D01*
X184227000Y-77786167D01*
X186554750Y-77786167D01*
X186774275Y-78317457D01*
X187180405Y-78724297D01*
X187711311Y-78944748D01*
X188286167Y-78945250D01*
X188817457Y-78725725D01*
X189224297Y-78319595D01*
X189444748Y-77788689D01*
X189445250Y-77213833D01*
X189225725Y-76682543D01*
X188819595Y-76275703D01*
X188288689Y-76055252D01*
X187713833Y-76054750D01*
X187182543Y-76274275D01*
X186775703Y-76680405D01*
X186555252Y-77211311D01*
X186554750Y-77786167D01*
X184227000Y-77786167D01*
X184227000Y-74500000D01*
X184218315Y-74453841D01*
X184191035Y-74411447D01*
X184149410Y-74383006D01*
X184100000Y-74373000D01*
X167900000Y-74373000D01*
X167853841Y-74381685D01*
X167811447Y-74408965D01*
X167783006Y-74450590D01*
X167773000Y-74500000D01*
X166751579Y-74500000D01*
X167366579Y-73885000D01*
X181693178Y-73885000D01*
X181813201Y-73934838D01*
X182185167Y-73935162D01*
X182528943Y-73793117D01*
X182792192Y-73530327D01*
X182934838Y-73186799D01*
X182935162Y-72814833D01*
X182793117Y-72471057D01*
X182666811Y-72344530D01*
X182713000Y-72320155D01*
X182713000Y-71127000D01*
X182693000Y-71127000D01*
X182693000Y-70873000D01*
X182713000Y-70873000D01*
X182713000Y-70853000D01*
X182967000Y-70853000D01*
X182967000Y-70873000D01*
X182987000Y-70873000D01*
X182987000Y-71127000D01*
X182967000Y-71127000D01*
X182967000Y-72320155D01*
X183196890Y-72441476D01*
X183263827Y-72413751D01*
X183207808Y-72469673D01*
X183065162Y-72813201D01*
X183064838Y-73185167D01*
X183206883Y-73528943D01*
X183469673Y-73792192D01*
X183813201Y-73934838D01*
X184185167Y-73935162D01*
X184306569Y-73885000D01*
X188693178Y-73885000D01*
X188813201Y-73934838D01*
X189185167Y-73935162D01*
X189528943Y-73793117D01*
X189792192Y-73530327D01*
X189934838Y-73186799D01*
X189935162Y-72814833D01*
X189793117Y-72471057D01*
X189530327Y-72207808D01*
X189186799Y-72065162D01*
X188979519Y-72064981D01*
X189190000Y-71749974D01*
X189409946Y-72079147D01*
X189891715Y-72401054D01*
X190460000Y-72514093D01*
X191028285Y-72401054D01*
X191510054Y-72079147D01*
X191539403Y-72035223D01*
X191611673Y-72209698D01*
X191790301Y-72388327D01*
X192023690Y-72485000D01*
X192714250Y-72485000D01*
X192873000Y-72326250D01*
X192873000Y-71127000D01*
X192853000Y-71127000D01*
X192853000Y-70873000D01*
X192873000Y-70873000D01*
X192873000Y-70853000D01*
X193127000Y-70853000D01*
X193127000Y-70873000D01*
X193147000Y-70873000D01*
X193147000Y-71127000D01*
X193127000Y-71127000D01*
X193127000Y-72326250D01*
X193285750Y-72485000D01*
X193976310Y-72485000D01*
X194209699Y-72388327D01*
X194290000Y-72308026D01*
X194290000Y-74338100D01*
X194225725Y-74182543D01*
X193819595Y-73775703D01*
X193288689Y-73555252D01*
X192713833Y-73554750D01*
X192182543Y-73774275D01*
X191775703Y-74180405D01*
X191555252Y-74711311D01*
X191554750Y-75286167D01*
X191774275Y-75817457D01*
X192180405Y-76224297D01*
X192711311Y-76444748D01*
X193286167Y-76445250D01*
X193817457Y-76225725D01*
X194224297Y-75819595D01*
X194290000Y-75661364D01*
X194290000Y-79307230D01*
X194262144Y-79239980D01*
X194014988Y-79164617D01*
X193179605Y-80000000D01*
X194014988Y-80835383D01*
X194262144Y-80760020D01*
X194290000Y-80682668D01*
X194290000Y-84928553D01*
X194244415Y-84860330D01*
X193758234Y-84535474D01*
X193184745Y-84421400D01*
X192815255Y-84421400D01*
X192615863Y-84461061D01*
X190617401Y-82462599D01*
X190370839Y-82297852D01*
X190080000Y-82240000D01*
X185557926Y-82240000D01*
X185553162Y-82214683D01*
X185414090Y-81998559D01*
X185201890Y-81853569D01*
X184950000Y-81802560D01*
X182450000Y-81802560D01*
X182214683Y-81846838D01*
X181998559Y-81985910D01*
X181853569Y-82198110D01*
X181802560Y-82450000D01*
X181802560Y-83550000D01*
X181846838Y-83785317D01*
X181985910Y-84001441D01*
X181987299Y-84002390D01*
X181853569Y-84198110D01*
X181802560Y-84450000D01*
X181802560Y-85550000D01*
X181846838Y-85785317D01*
X181985910Y-86001441D01*
X181987299Y-86002390D01*
X181853569Y-86198110D01*
X181802560Y-86450000D01*
X181802560Y-87550000D01*
X181846838Y-87785317D01*
X181985910Y-88001441D01*
X181987299Y-88002390D01*
X181853569Y-88198110D01*
X181802560Y-88450000D01*
X181802560Y-89550000D01*
X181846838Y-89785317D01*
X181985910Y-90001441D01*
X181987299Y-90002390D01*
X181853569Y-90198110D01*
X181802560Y-90450000D01*
X181802560Y-90493911D01*
X181793117Y-90471057D01*
X181530327Y-90207808D01*
X181186799Y-90065162D01*
X180814833Y-90064838D01*
X180471057Y-90206883D01*
X180207808Y-90469673D01*
X180065162Y-90813201D01*
X180064838Y-91185167D01*
X180206883Y-91528943D01*
X180240000Y-91562118D01*
X180240000Y-92000000D01*
X180297852Y-92290839D01*
X180462599Y-92537401D01*
X181462599Y-93537401D01*
X181709161Y-93702148D01*
X181835934Y-93727365D01*
X181846838Y-93785317D01*
X181985910Y-94001441D01*
X181994598Y-94007377D01*
X181911673Y-94090301D01*
X181815000Y-94323690D01*
X181815000Y-94714250D01*
X181973750Y-94873000D01*
X183573000Y-94873000D01*
X183573000Y-94853000D01*
X183827000Y-94853000D01*
X183827000Y-94873000D01*
X185426250Y-94873000D01*
X185585000Y-94714250D01*
X185585000Y-94323690D01*
X185488327Y-94090301D01*
X185405774Y-94007748D01*
X185546431Y-93801890D01*
X185597440Y-93550000D01*
X185597440Y-92672242D01*
X186240000Y-93314802D01*
X186240000Y-102685198D01*
X183462599Y-105462599D01*
X183435898Y-105502560D01*
X183150000Y-105502560D01*
X182914683Y-105546838D01*
X182698559Y-105685910D01*
X182553569Y-105898110D01*
X182531699Y-106006107D01*
X182226924Y-105728355D01*
X181816890Y-105558524D01*
X181587000Y-105679845D01*
X181587000Y-106873000D01*
X181607000Y-106873000D01*
X181607000Y-107127000D01*
X181587000Y-107127000D01*
X181587000Y-108320155D01*
X181816890Y-108441476D01*
X182226924Y-108271645D01*
X182529937Y-107995499D01*
X182546838Y-108085317D01*
X182685910Y-108301441D01*
X182898110Y-108446431D01*
X183150000Y-108497440D01*
X184850000Y-108497440D01*
X185085317Y-108453162D01*
X185301441Y-108314090D01*
X185446431Y-108101890D01*
X185497440Y-107850000D01*
X185497440Y-106150000D01*
X185464868Y-105976890D01*
X191558524Y-105976890D01*
X191728355Y-106386924D01*
X192118642Y-106815183D01*
X192643108Y-107061486D01*
X192873000Y-106940819D01*
X192873000Y-105747000D01*
X191679845Y-105747000D01*
X191558524Y-105976890D01*
X185464868Y-105976890D01*
X185453162Y-105914683D01*
X185338425Y-105736377D01*
X186064991Y-105009811D01*
X186064838Y-105185167D01*
X186206883Y-105528943D01*
X186469673Y-105792192D01*
X186813201Y-105934838D01*
X187185167Y-105935162D01*
X187528943Y-105793117D01*
X187792192Y-105530327D01*
X187934838Y-105186799D01*
X187934879Y-105139923D01*
X188331174Y-104743628D01*
X188350000Y-104747440D01*
X189650000Y-104747440D01*
X189885317Y-104703162D01*
X190101441Y-104564090D01*
X190246431Y-104351890D01*
X190297440Y-104100000D01*
X190297440Y-102600000D01*
X190253162Y-102364683D01*
X190114090Y-102148559D01*
X189901890Y-102003569D01*
X189888803Y-102000919D01*
X190101441Y-101864090D01*
X190246431Y-101651890D01*
X190295415Y-101410000D01*
X191800545Y-101410000D01*
X191920853Y-101590054D01*
X192250026Y-101810000D01*
X191920853Y-102029946D01*
X191598946Y-102511715D01*
X191485907Y-103080000D01*
X191598946Y-103648285D01*
X191920853Y-104130054D01*
X192261553Y-104357702D01*
X192118642Y-104424817D01*
X191728355Y-104853076D01*
X191558524Y-105263110D01*
X191679845Y-105493000D01*
X192873000Y-105493000D01*
X192873000Y-105473000D01*
X193127000Y-105473000D01*
X193127000Y-105493000D01*
X193147000Y-105493000D01*
X193147000Y-105747000D01*
X193127000Y-105747000D01*
X193127000Y-106940819D01*
X193356892Y-107061486D01*
X193881358Y-106815183D01*
X194271645Y-106386924D01*
X194290000Y-106342608D01*
X194290000Y-113290000D01*
X165089678Y-113290000D01*
X165189854Y-113069459D01*
X164000000Y-111879605D01*
X162810146Y-113069459D01*
X162910322Y-113290000D01*
X153710000Y-113290000D01*
X153710000Y-111363880D01*
X162055934Y-111363880D01*
X162075290Y-112133427D01*
X162332545Y-112754496D01*
X162630541Y-112889854D01*
X163820395Y-111700000D01*
X164179605Y-111700000D01*
X165369459Y-112889854D01*
X165667455Y-112754496D01*
X165944066Y-112036120D01*
X165924710Y-111266573D01*
X165667455Y-110645504D01*
X165369459Y-110510146D01*
X164179605Y-111700000D01*
X163820395Y-111700000D01*
X162630541Y-110510146D01*
X162332545Y-110645504D01*
X162055934Y-111363880D01*
X153710000Y-111363880D01*
X153710000Y-110330541D01*
X162810146Y-110330541D01*
X164000000Y-111520395D01*
X165189854Y-110330541D01*
X165054496Y-110032545D01*
X164336120Y-109755934D01*
X163566573Y-109775290D01*
X162945504Y-110032545D01*
X162810146Y-110330541D01*
X153710000Y-110330541D01*
X153710000Y-109435750D01*
X171115000Y-109435750D01*
X171115000Y-110876309D01*
X171211673Y-111109698D01*
X171390301Y-111288327D01*
X171623690Y-111385000D01*
X172714250Y-111385000D01*
X172873000Y-111226250D01*
X172873000Y-109277000D01*
X173127000Y-109277000D01*
X173127000Y-111226250D01*
X173285750Y-111385000D01*
X174376310Y-111385000D01*
X174609699Y-111288327D01*
X174788327Y-111109698D01*
X174885000Y-110876309D01*
X174885000Y-109435750D01*
X174726250Y-109277000D01*
X173127000Y-109277000D01*
X172873000Y-109277000D01*
X171273750Y-109277000D01*
X171115000Y-109435750D01*
X153710000Y-109435750D01*
X153710000Y-108369459D01*
X159810146Y-108369459D01*
X159945504Y-108667455D01*
X160663880Y-108944066D01*
X161433427Y-108924710D01*
X162054496Y-108667455D01*
X162189854Y-108369459D01*
X161000000Y-107179605D01*
X159810146Y-108369459D01*
X153710000Y-108369459D01*
X153710000Y-106663880D01*
X159055934Y-106663880D01*
X159075290Y-107433427D01*
X159332545Y-108054496D01*
X159630541Y-108189854D01*
X160820395Y-107000000D01*
X161179605Y-107000000D01*
X162369459Y-108189854D01*
X162667455Y-108054496D01*
X162944066Y-107336120D01*
X162924710Y-106566573D01*
X162667455Y-105945504D01*
X162369459Y-105810146D01*
X161179605Y-107000000D01*
X160820395Y-107000000D01*
X159630541Y-105810146D01*
X159332545Y-105945504D01*
X159055934Y-106663880D01*
X153710000Y-106663880D01*
X153710000Y-105630541D01*
X159810146Y-105630541D01*
X161000000Y-106820395D01*
X162120395Y-105700000D01*
X165052560Y-105700000D01*
X165052560Y-108300000D01*
X165096838Y-108535317D01*
X165235910Y-108751441D01*
X165448110Y-108896431D01*
X165700000Y-108947440D01*
X168300000Y-108947440D01*
X168535317Y-108903162D01*
X168751441Y-108764090D01*
X168896431Y-108551890D01*
X168947440Y-108300000D01*
X168947440Y-106304139D01*
X169516579Y-105735000D01*
X171102560Y-105735000D01*
X171102560Y-106450000D01*
X171146838Y-106685317D01*
X171285910Y-106901441D01*
X171425750Y-106996990D01*
X171390301Y-107011673D01*
X171211673Y-107190302D01*
X171115000Y-107423691D01*
X171115000Y-108864250D01*
X171273750Y-109023000D01*
X172873000Y-109023000D01*
X172873000Y-109003000D01*
X173127000Y-109003000D01*
X173127000Y-109023000D01*
X174726250Y-109023000D01*
X174885000Y-108864250D01*
X174885000Y-107423691D01*
X174788327Y-107190302D01*
X174609699Y-107011673D01*
X174573253Y-106996577D01*
X174613145Y-106970907D01*
X177435000Y-106970907D01*
X177435000Y-107029093D01*
X177548039Y-107597378D01*
X177869946Y-108079147D01*
X178351715Y-108401054D01*
X178920000Y-108514093D01*
X179488285Y-108401054D01*
X179970054Y-108079147D01*
X180197702Y-107738447D01*
X180264817Y-107881358D01*
X180693076Y-108271645D01*
X181103110Y-108441476D01*
X181333000Y-108320155D01*
X181333000Y-107127000D01*
X181313000Y-107127000D01*
X181313000Y-106873000D01*
X181333000Y-106873000D01*
X181333000Y-105679845D01*
X181103110Y-105558524D01*
X180693076Y-105728355D01*
X180264817Y-106118642D01*
X180197702Y-106261553D01*
X179970054Y-105920853D01*
X179488285Y-105598946D01*
X178920000Y-105485907D01*
X178351715Y-105598946D01*
X177869946Y-105920853D01*
X177548039Y-106402622D01*
X177435000Y-106970907D01*
X174613145Y-106970907D01*
X174701441Y-106914090D01*
X174846431Y-106701890D01*
X174897440Y-106450000D01*
X174897440Y-103250000D01*
X174853162Y-103014683D01*
X174714090Y-102798559D01*
X174501890Y-102653569D01*
X174250000Y-102602560D01*
X171750000Y-102602560D01*
X171514683Y-102646838D01*
X171298559Y-102785910D01*
X171153569Y-102998110D01*
X171102560Y-103250000D01*
X171102560Y-103965000D01*
X169150005Y-103965000D01*
X169150000Y-103964999D01*
X168811325Y-104032367D01*
X168524210Y-104224210D01*
X168524208Y-104224213D01*
X167695861Y-105052560D01*
X165700000Y-105052560D01*
X165464683Y-105096838D01*
X165248559Y-105235910D01*
X165103569Y-105448110D01*
X165052560Y-105700000D01*
X162120395Y-105700000D01*
X162189854Y-105630541D01*
X162054496Y-105332545D01*
X161336120Y-105055934D01*
X160566573Y-105075290D01*
X159945504Y-105332545D01*
X159810146Y-105630541D01*
X153710000Y-105630541D01*
X153710000Y-97285750D01*
X161815000Y-97285750D01*
X161815000Y-97501310D01*
X161911673Y-97734699D01*
X162090302Y-97913327D01*
X162323691Y-98010000D01*
X162764250Y-98010000D01*
X162923000Y-97851250D01*
X162923000Y-97127000D01*
X161973750Y-97127000D01*
X161815000Y-97285750D01*
X153710000Y-97285750D01*
X153710000Y-96498690D01*
X161815000Y-96498690D01*
X161815000Y-96714250D01*
X161973750Y-96873000D01*
X162923000Y-96873000D01*
X162923000Y-96148750D01*
X162764250Y-95990000D01*
X162323691Y-95990000D01*
X162090302Y-96086673D01*
X161911673Y-96265301D01*
X161815000Y-96498690D01*
X153710000Y-96498690D01*
X153710000Y-93585750D01*
X160515000Y-93585750D01*
X160515000Y-94176310D01*
X160611673Y-94409699D01*
X160790302Y-94588327D01*
X161023691Y-94685000D01*
X161864250Y-94685000D01*
X162023000Y-94526250D01*
X162023000Y-93427000D01*
X162277000Y-93427000D01*
X162277000Y-94526250D01*
X162435750Y-94685000D01*
X163276309Y-94685000D01*
X163509698Y-94588327D01*
X163688327Y-94409699D01*
X163785000Y-94176310D01*
X163785000Y-93585750D01*
X163626250Y-93427000D01*
X162277000Y-93427000D01*
X162023000Y-93427000D01*
X160673750Y-93427000D01*
X160515000Y-93585750D01*
X153710000Y-93585750D01*
X153710000Y-89100000D01*
X154202560Y-89100000D01*
X154202560Y-92900000D01*
X154246838Y-93135317D01*
X154385910Y-93351441D01*
X154598110Y-93496431D01*
X154850000Y-93547440D01*
X156850000Y-93547440D01*
X157085317Y-93503162D01*
X157301441Y-93364090D01*
X157446431Y-93151890D01*
X157497440Y-92900000D01*
X157497440Y-91885000D01*
X157999995Y-91885000D01*
X158000000Y-91885001D01*
X158000005Y-91885000D01*
X160527962Y-91885000D01*
X160546838Y-91985317D01*
X160652482Y-92149492D01*
X160611673Y-92190301D01*
X160515000Y-92423690D01*
X160515000Y-93014250D01*
X160673750Y-93173000D01*
X162023000Y-93173000D01*
X162023000Y-93153000D01*
X162277000Y-93153000D01*
X162277000Y-93173000D01*
X163626250Y-93173000D01*
X163785000Y-93014250D01*
X163785000Y-92423690D01*
X163688327Y-92190301D01*
X163646366Y-92148340D01*
X163746431Y-92001890D01*
X163747084Y-91998664D01*
X165115000Y-93366579D01*
X165115000Y-95977560D01*
X164350000Y-95977560D01*
X164114683Y-96021838D01*
X164011354Y-96088329D01*
X164009698Y-96086673D01*
X163776309Y-95990000D01*
X163335750Y-95990000D01*
X163177000Y-96148750D01*
X163177000Y-96873000D01*
X163197000Y-96873000D01*
X163197000Y-97127000D01*
X163177000Y-97127000D01*
X163177000Y-97851250D01*
X163335750Y-98010000D01*
X163776309Y-98010000D01*
X164009698Y-97913327D01*
X164011068Y-97911957D01*
X164098110Y-97971431D01*
X164350000Y-98022440D01*
X165550000Y-98022440D01*
X165785317Y-97978162D01*
X165930095Y-97885000D01*
X166510982Y-97885000D01*
X166585910Y-98001441D01*
X166798110Y-98146431D01*
X167050000Y-98197440D01*
X169550000Y-98197440D01*
X169785317Y-98153162D01*
X169792560Y-98148501D01*
X169792560Y-99950000D01*
X169836838Y-100185317D01*
X169975910Y-100401441D01*
X170188110Y-100546431D01*
X170440000Y-100597440D01*
X171540000Y-100597440D01*
X171775317Y-100553162D01*
X171991441Y-100414090D01*
X171992390Y-100412701D01*
X172188110Y-100546431D01*
X172440000Y-100597440D01*
X173540000Y-100597440D01*
X173775317Y-100553162D01*
X173991441Y-100414090D01*
X173992390Y-100412701D01*
X174188110Y-100546431D01*
X174440000Y-100597440D01*
X175540000Y-100597440D01*
X175775317Y-100553162D01*
X175991441Y-100414090D01*
X175992390Y-100412701D01*
X176188110Y-100546431D01*
X176440000Y-100597440D01*
X177540000Y-100597440D01*
X177775317Y-100553162D01*
X177991441Y-100414090D01*
X177992390Y-100412701D01*
X178188110Y-100546431D01*
X178440000Y-100597440D01*
X179540000Y-100597440D01*
X179775317Y-100553162D01*
X179991441Y-100414090D01*
X179992390Y-100412701D01*
X180188110Y-100546431D01*
X180440000Y-100597440D01*
X181540000Y-100597440D01*
X181775317Y-100553162D01*
X181991441Y-100414090D01*
X182136431Y-100201890D01*
X182187440Y-99950000D01*
X182187440Y-98128563D01*
X182323691Y-98185000D01*
X183414250Y-98185000D01*
X183573000Y-98026250D01*
X183573000Y-97127000D01*
X183827000Y-97127000D01*
X183827000Y-98026250D01*
X183985750Y-98185000D01*
X185076309Y-98185000D01*
X185309698Y-98088327D01*
X185488327Y-97909699D01*
X185585000Y-97676310D01*
X185585000Y-97285750D01*
X185426250Y-97127000D01*
X183827000Y-97127000D01*
X183573000Y-97127000D01*
X183553000Y-97127000D01*
X183553000Y-96873000D01*
X183573000Y-96873000D01*
X183573000Y-95127000D01*
X183827000Y-95127000D01*
X183827000Y-96873000D01*
X185426250Y-96873000D01*
X185585000Y-96714250D01*
X185585000Y-96323690D01*
X185488327Y-96090301D01*
X185398025Y-96000000D01*
X185488327Y-95909699D01*
X185585000Y-95676310D01*
X185585000Y-95285750D01*
X185426250Y-95127000D01*
X183827000Y-95127000D01*
X183573000Y-95127000D01*
X181973750Y-95127000D01*
X181815000Y-95285750D01*
X181815000Y-95676310D01*
X181911673Y-95909699D01*
X182001975Y-96000000D01*
X181911673Y-96090301D01*
X181815000Y-96323690D01*
X181815000Y-96714250D01*
X181973748Y-96872998D01*
X181820325Y-96872998D01*
X181791890Y-96853569D01*
X181540000Y-96802560D01*
X180440000Y-96802560D01*
X180204683Y-96846838D01*
X179988559Y-96985910D01*
X179987610Y-96987299D01*
X179791890Y-96853569D01*
X179540000Y-96802560D01*
X178440000Y-96802560D01*
X178204683Y-96846838D01*
X177988559Y-96985910D01*
X177987610Y-96987299D01*
X177791890Y-96853569D01*
X177540000Y-96802560D01*
X176506089Y-96802560D01*
X176528943Y-96793117D01*
X176792192Y-96530327D01*
X176934838Y-96186799D01*
X176935162Y-95814833D01*
X176793117Y-95471057D01*
X176530327Y-95207808D01*
X176186799Y-95065162D01*
X175814833Y-95064838D01*
X175471057Y-95206883D01*
X175437882Y-95240000D01*
X171000000Y-95240000D01*
X170793782Y-95281020D01*
X174139680Y-91935122D01*
X174185167Y-91935162D01*
X174528943Y-91793117D01*
X174792192Y-91530327D01*
X174934838Y-91186799D01*
X174935162Y-90814833D01*
X174793117Y-90471057D01*
X174530327Y-90207808D01*
X174186799Y-90065162D01*
X173934944Y-90064943D01*
X173935162Y-89814833D01*
X173793117Y-89471057D01*
X173530327Y-89207808D01*
X173186799Y-89065162D01*
X172934944Y-89064943D01*
X172935162Y-88814833D01*
X172793117Y-88471057D01*
X172530327Y-88207808D01*
X172186799Y-88065162D01*
X171934944Y-88064943D01*
X171935162Y-87814833D01*
X171793117Y-87471057D01*
X171530327Y-87207808D01*
X171186799Y-87065162D01*
X170814833Y-87064838D01*
X170471057Y-87206883D01*
X170207808Y-87469673D01*
X170197440Y-87494642D01*
X170197440Y-86450000D01*
X170153162Y-86214683D01*
X170014090Y-85998559D01*
X170012701Y-85997610D01*
X170146431Y-85801890D01*
X170197440Y-85550000D01*
X170197440Y-84450000D01*
X170153162Y-84214683D01*
X170014090Y-83998559D01*
X170012701Y-83997610D01*
X170146431Y-83801890D01*
X170197440Y-83550000D01*
X170197440Y-82450000D01*
X170153162Y-82214683D01*
X170014090Y-81998559D01*
X169801890Y-81853569D01*
X169550000Y-81802560D01*
X167050000Y-81802560D01*
X166814683Y-81846838D01*
X166598559Y-81985910D01*
X166453569Y-82198110D01*
X166445086Y-82240000D01*
X163050000Y-82240000D01*
X162759160Y-82297852D01*
X162512599Y-82462599D01*
X162222638Y-82752560D01*
X161300000Y-82752560D01*
X161064683Y-82796838D01*
X160848559Y-82935910D01*
X160709110Y-83140000D01*
X157287279Y-83140000D01*
X157164090Y-82948559D01*
X156951890Y-82803569D01*
X156700000Y-82752560D01*
X155000000Y-82752560D01*
X154764683Y-82796838D01*
X154548559Y-82935910D01*
X154403569Y-83148110D01*
X154352560Y-83400000D01*
X154352560Y-84400000D01*
X154396838Y-84635317D01*
X154535910Y-84851441D01*
X154748110Y-84996431D01*
X155000000Y-85047440D01*
X156700000Y-85047440D01*
X156935317Y-85003162D01*
X157151441Y-84864090D01*
X157290890Y-84660000D01*
X160712721Y-84660000D01*
X160835910Y-84851441D01*
X161048110Y-84996431D01*
X161300000Y-85047440D01*
X163000000Y-85047440D01*
X163235317Y-85003162D01*
X163451441Y-84864090D01*
X163596431Y-84651890D01*
X163647440Y-84400000D01*
X163647440Y-83760000D01*
X166442074Y-83760000D01*
X166446838Y-83785317D01*
X166585910Y-84001441D01*
X166587299Y-84002390D01*
X166453569Y-84198110D01*
X166402560Y-84450000D01*
X166402560Y-85550000D01*
X166446838Y-85785317D01*
X166585910Y-86001441D01*
X166587299Y-86002390D01*
X166510356Y-86115000D01*
X160000005Y-86115000D01*
X160000000Y-86114999D01*
X159661326Y-86182366D01*
X159618712Y-86210840D01*
X159374210Y-86374210D01*
X159374208Y-86374213D01*
X158374210Y-87374210D01*
X158182367Y-87661325D01*
X158182367Y-87661326D01*
X158114999Y-88000000D01*
X158115000Y-88000005D01*
X158115000Y-89633421D01*
X157633420Y-90115000D01*
X157497440Y-90115000D01*
X157497440Y-89100000D01*
X157453162Y-88864683D01*
X157314090Y-88648559D01*
X157101890Y-88503569D01*
X156850000Y-88452560D01*
X154850000Y-88452560D01*
X154614683Y-88496838D01*
X154398559Y-88635910D01*
X154253569Y-88848110D01*
X154202560Y-89100000D01*
X153710000Y-89100000D01*
X153710000Y-80385750D01*
X154365000Y-80385750D01*
X154365000Y-80726310D01*
X154461673Y-80959699D01*
X154640302Y-81138327D01*
X154873691Y-81235000D01*
X155564250Y-81235000D01*
X155723000Y-81076250D01*
X155723000Y-80227000D01*
X155977000Y-80227000D01*
X155977000Y-81076250D01*
X156135750Y-81235000D01*
X156826309Y-81235000D01*
X157059698Y-81138327D01*
X157238327Y-80959699D01*
X157335000Y-80726310D01*
X157335000Y-80385750D01*
X157176250Y-80227000D01*
X155977000Y-80227000D01*
X155723000Y-80227000D01*
X154523750Y-80227000D01*
X154365000Y-80385750D01*
X153710000Y-80385750D01*
X153710000Y-79473690D01*
X154365000Y-79473690D01*
X154365000Y-79814250D01*
X154523750Y-79973000D01*
X155723000Y-79973000D01*
X155723000Y-79123750D01*
X155977000Y-79123750D01*
X155977000Y-79973000D01*
X157176250Y-79973000D01*
X157335000Y-79814250D01*
X157335000Y-79473690D01*
X157238327Y-79240301D01*
X157059698Y-79061673D01*
X156826309Y-78965000D01*
X156135750Y-78965000D01*
X155977000Y-79123750D01*
X155723000Y-79123750D01*
X155564250Y-78965000D01*
X154873691Y-78965000D01*
X154640302Y-79061673D01*
X154461673Y-79240301D01*
X154365000Y-79473690D01*
X153710000Y-79473690D01*
X153710000Y-71886081D01*
X154133076Y-72271645D01*
X154543110Y-72441476D01*
X154773000Y-72320155D01*
X154773000Y-71127000D01*
X154753000Y-71127000D01*
X154753000Y-70873000D01*
X154773000Y-70873000D01*
X154773000Y-70853000D01*
X155027000Y-70853000D01*
X155027000Y-70873000D01*
X155027000Y-70873000D01*
G37*
X155027000Y-70873000D02*
X155047000Y-70873000D01*
X155047000Y-71127000D01*
X155027000Y-71127000D01*
X155027000Y-72320155D01*
X155256890Y-72441476D01*
X155666924Y-72271645D01*
X156095183Y-71881358D01*
X156162298Y-71738447D01*
X156389946Y-72079147D01*
X156555000Y-72189432D01*
X156555000Y-74817417D01*
X156448559Y-74885910D01*
X156303569Y-75098110D01*
X156252560Y-75350000D01*
X156252560Y-76650000D01*
X156296838Y-76885317D01*
X156435910Y-77101441D01*
X156648110Y-77246431D01*
X156900000Y-77297440D01*
X158400000Y-77297440D01*
X158635317Y-77253162D01*
X158851441Y-77114090D01*
X158996431Y-76901890D01*
X158999081Y-76888803D01*
X159135910Y-77101441D01*
X159348110Y-77246431D01*
X159465000Y-77270102D01*
X159465000Y-78283421D01*
X158591164Y-79157256D01*
X158471057Y-79206883D01*
X158207808Y-79469673D01*
X158065162Y-79813201D01*
X158064838Y-80185167D01*
X158206883Y-80528943D01*
X158469673Y-80792192D01*
X158813201Y-80934838D01*
X159185167Y-80935162D01*
X159528943Y-80793117D01*
X159792192Y-80530327D01*
X159842566Y-80409014D01*
X159865829Y-80385750D01*
X160665000Y-80385750D01*
X160665000Y-80726310D01*
X160761673Y-80959699D01*
X160940302Y-81138327D01*
X161173691Y-81235000D01*
X161864250Y-81235000D01*
X162023000Y-81076250D01*
X162023000Y-80227000D01*
X162277000Y-80227000D01*
X162277000Y-81076250D01*
X162435750Y-81235000D01*
X163126309Y-81235000D01*
X163359698Y-81138327D01*
X163483037Y-81014988D01*
X192164617Y-81014988D01*
X192239980Y-81262144D01*
X192780834Y-81456916D01*
X193355055Y-81429886D01*
X193760020Y-81262144D01*
X193835383Y-81014988D01*
X193000000Y-80179605D01*
X192164617Y-81014988D01*
X163483037Y-81014988D01*
X163538327Y-80959699D01*
X163635000Y-80726310D01*
X163635000Y-80385750D01*
X163476250Y-80227000D01*
X162277000Y-80227000D01*
X162023000Y-80227000D01*
X160823750Y-80227000D01*
X160665000Y-80385750D01*
X159865829Y-80385750D01*
X160665000Y-79586579D01*
X160665000Y-79814250D01*
X160823750Y-79973000D01*
X162023000Y-79973000D01*
X162023000Y-79123750D01*
X162277000Y-79123750D01*
X162277000Y-79973000D01*
X163476250Y-79973000D01*
X163635000Y-79814250D01*
X163635000Y-79473690D01*
X163538327Y-79240301D01*
X163359698Y-79061673D01*
X163126309Y-78965000D01*
X162435750Y-78965000D01*
X162277000Y-79123750D01*
X162023000Y-79123750D01*
X161864250Y-78965000D01*
X161173691Y-78965000D01*
X161172221Y-78965609D01*
X161235000Y-78650000D01*
X161235000Y-77272038D01*
X161335317Y-77253162D01*
X161551441Y-77114090D01*
X161696431Y-76901890D01*
X161699851Y-76885000D01*
X163999995Y-76885000D01*
X164000000Y-76885001D01*
X164282484Y-76828810D01*
X164338675Y-76817633D01*
X164625790Y-76625790D01*
X166751579Y-74500000D01*
X167773000Y-74500000D01*
X167773000Y-80500000D01*
X167781685Y-80546159D01*
X167808965Y-80588553D01*
X167850590Y-80616994D01*
X167900000Y-80627000D01*
X184100000Y-80627000D01*
X184146159Y-80618315D01*
X184188553Y-80591035D01*
X184216994Y-80549410D01*
X184227000Y-80500000D01*
X184227000Y-79780834D01*
X191543084Y-79780834D01*
X191570114Y-80355055D01*
X191737856Y-80760020D01*
X191985012Y-80835383D01*
X192820395Y-80000000D01*
X191985012Y-79164617D01*
X191737856Y-79239980D01*
X191543084Y-79780834D01*
X184227000Y-79780834D01*
X184227000Y-78985012D01*
X192164617Y-78985012D01*
X193000000Y-79820395D01*
X193835383Y-78985012D01*
X193760020Y-78737856D01*
X193219166Y-78543084D01*
X192644945Y-78570114D01*
X192239980Y-78737856D01*
X192164617Y-78985012D01*
X184227000Y-78985012D01*
X184227000Y-77786167D01*
X186554750Y-77786167D01*
X186774275Y-78317457D01*
X187180405Y-78724297D01*
X187711311Y-78944748D01*
X188286167Y-78945250D01*
X188817457Y-78725725D01*
X189224297Y-78319595D01*
X189444748Y-77788689D01*
X189445250Y-77213833D01*
X189225725Y-76682543D01*
X188819595Y-76275703D01*
X188288689Y-76055252D01*
X187713833Y-76054750D01*
X187182543Y-76274275D01*
X186775703Y-76680405D01*
X186555252Y-77211311D01*
X186554750Y-77786167D01*
X184227000Y-77786167D01*
X184227000Y-74500000D01*
X184218315Y-74453841D01*
X184191035Y-74411447D01*
X184149410Y-74383006D01*
X184100000Y-74373000D01*
X167900000Y-74373000D01*
X167853841Y-74381685D01*
X167811447Y-74408965D01*
X167783006Y-74450590D01*
X167773000Y-74500000D01*
X166751579Y-74500000D01*
X167366579Y-73885000D01*
X181693178Y-73885000D01*
X181813201Y-73934838D01*
X182185167Y-73935162D01*
X182528943Y-73793117D01*
X182792192Y-73530327D01*
X182934838Y-73186799D01*
X182935162Y-72814833D01*
X182793117Y-72471057D01*
X182666811Y-72344530D01*
X182713000Y-72320155D01*
X182713000Y-71127000D01*
X182693000Y-71127000D01*
X182693000Y-70873000D01*
X182713000Y-70873000D01*
X182713000Y-70853000D01*
X182967000Y-70853000D01*
X182967000Y-70873000D01*
X182987000Y-70873000D01*
X182987000Y-71127000D01*
X182967000Y-71127000D01*
X182967000Y-72320155D01*
X183196890Y-72441476D01*
X183263827Y-72413751D01*
X183207808Y-72469673D01*
X183065162Y-72813201D01*
X183064838Y-73185167D01*
X183206883Y-73528943D01*
X183469673Y-73792192D01*
X183813201Y-73934838D01*
X184185167Y-73935162D01*
X184306569Y-73885000D01*
X188693178Y-73885000D01*
X188813201Y-73934838D01*
X189185167Y-73935162D01*
X189528943Y-73793117D01*
X189792192Y-73530327D01*
X189934838Y-73186799D01*
X189935162Y-72814833D01*
X189793117Y-72471057D01*
X189530327Y-72207808D01*
X189186799Y-72065162D01*
X188979519Y-72064981D01*
X189190000Y-71749974D01*
X189409946Y-72079147D01*
X189891715Y-72401054D01*
X190460000Y-72514093D01*
X191028285Y-72401054D01*
X191510054Y-72079147D01*
X191539403Y-72035223D01*
X191611673Y-72209698D01*
X191790301Y-72388327D01*
X192023690Y-72485000D01*
X192714250Y-72485000D01*
X192873000Y-72326250D01*
X192873000Y-71127000D01*
X192853000Y-71127000D01*
X192853000Y-70873000D01*
X192873000Y-70873000D01*
X192873000Y-70853000D01*
X193127000Y-70853000D01*
X193127000Y-70873000D01*
X193147000Y-70873000D01*
X193147000Y-71127000D01*
X193127000Y-71127000D01*
X193127000Y-72326250D01*
X193285750Y-72485000D01*
X193976310Y-72485000D01*
X194209699Y-72388327D01*
X194290000Y-72308026D01*
X194290000Y-74338100D01*
X194225725Y-74182543D01*
X193819595Y-73775703D01*
X193288689Y-73555252D01*
X192713833Y-73554750D01*
X192182543Y-73774275D01*
X191775703Y-74180405D01*
X191555252Y-74711311D01*
X191554750Y-75286167D01*
X191774275Y-75817457D01*
X192180405Y-76224297D01*
X192711311Y-76444748D01*
X193286167Y-76445250D01*
X193817457Y-76225725D01*
X194224297Y-75819595D01*
X194290000Y-75661364D01*
X194290000Y-79307230D01*
X194262144Y-79239980D01*
X194014988Y-79164617D01*
X193179605Y-80000000D01*
X194014988Y-80835383D01*
X194262144Y-80760020D01*
X194290000Y-80682668D01*
X194290000Y-84928553D01*
X194244415Y-84860330D01*
X193758234Y-84535474D01*
X193184745Y-84421400D01*
X192815255Y-84421400D01*
X192615863Y-84461061D01*
X190617401Y-82462599D01*
X190370839Y-82297852D01*
X190080000Y-82240000D01*
X185557926Y-82240000D01*
X185553162Y-82214683D01*
X185414090Y-81998559D01*
X185201890Y-81853569D01*
X184950000Y-81802560D01*
X182450000Y-81802560D01*
X182214683Y-81846838D01*
X181998559Y-81985910D01*
X181853569Y-82198110D01*
X181802560Y-82450000D01*
X181802560Y-83550000D01*
X181846838Y-83785317D01*
X181985910Y-84001441D01*
X181987299Y-84002390D01*
X181853569Y-84198110D01*
X181802560Y-84450000D01*
X181802560Y-85550000D01*
X181846838Y-85785317D01*
X181985910Y-86001441D01*
X181987299Y-86002390D01*
X181853569Y-86198110D01*
X181802560Y-86450000D01*
X181802560Y-87550000D01*
X181846838Y-87785317D01*
X181985910Y-88001441D01*
X181987299Y-88002390D01*
X181853569Y-88198110D01*
X181802560Y-88450000D01*
X181802560Y-89550000D01*
X181846838Y-89785317D01*
X181985910Y-90001441D01*
X181987299Y-90002390D01*
X181853569Y-90198110D01*
X181802560Y-90450000D01*
X181802560Y-90493911D01*
X181793117Y-90471057D01*
X181530327Y-90207808D01*
X181186799Y-90065162D01*
X180814833Y-90064838D01*
X180471057Y-90206883D01*
X180207808Y-90469673D01*
X180065162Y-90813201D01*
X180064838Y-91185167D01*
X180206883Y-91528943D01*
X180240000Y-91562118D01*
X180240000Y-92000000D01*
X180297852Y-92290839D01*
X180462599Y-92537401D01*
X181462599Y-93537401D01*
X181709161Y-93702148D01*
X181835934Y-93727365D01*
X181846838Y-93785317D01*
X181985910Y-94001441D01*
X181994598Y-94007377D01*
X181911673Y-94090301D01*
X181815000Y-94323690D01*
X181815000Y-94714250D01*
X181973750Y-94873000D01*
X183573000Y-94873000D01*
X183573000Y-94853000D01*
X183827000Y-94853000D01*
X183827000Y-94873000D01*
X185426250Y-94873000D01*
X185585000Y-94714250D01*
X185585000Y-94323690D01*
X185488327Y-94090301D01*
X185405774Y-94007748D01*
X185546431Y-93801890D01*
X185597440Y-93550000D01*
X185597440Y-92672242D01*
X186240000Y-93314802D01*
X186240000Y-102685198D01*
X183462599Y-105462599D01*
X183435898Y-105502560D01*
X183150000Y-105502560D01*
X182914683Y-105546838D01*
X182698559Y-105685910D01*
X182553569Y-105898110D01*
X182531699Y-106006107D01*
X182226924Y-105728355D01*
X181816890Y-105558524D01*
X181587000Y-105679845D01*
X181587000Y-106873000D01*
X181607000Y-106873000D01*
X181607000Y-107127000D01*
X181587000Y-107127000D01*
X181587000Y-108320155D01*
X181816890Y-108441476D01*
X182226924Y-108271645D01*
X182529937Y-107995499D01*
X182546838Y-108085317D01*
X182685910Y-108301441D01*
X182898110Y-108446431D01*
X183150000Y-108497440D01*
X184850000Y-108497440D01*
X185085317Y-108453162D01*
X185301441Y-108314090D01*
X185446431Y-108101890D01*
X185497440Y-107850000D01*
X185497440Y-106150000D01*
X185464868Y-105976890D01*
X191558524Y-105976890D01*
X191728355Y-106386924D01*
X192118642Y-106815183D01*
X192643108Y-107061486D01*
X192873000Y-106940819D01*
X192873000Y-105747000D01*
X191679845Y-105747000D01*
X191558524Y-105976890D01*
X185464868Y-105976890D01*
X185453162Y-105914683D01*
X185338425Y-105736377D01*
X186064991Y-105009811D01*
X186064838Y-105185167D01*
X186206883Y-105528943D01*
X186469673Y-105792192D01*
X186813201Y-105934838D01*
X187185167Y-105935162D01*
X187528943Y-105793117D01*
X187792192Y-105530327D01*
X187934838Y-105186799D01*
X187934879Y-105139923D01*
X188331174Y-104743628D01*
X188350000Y-104747440D01*
X189650000Y-104747440D01*
X189885317Y-104703162D01*
X190101441Y-104564090D01*
X190246431Y-104351890D01*
X190297440Y-104100000D01*
X190297440Y-102600000D01*
X190253162Y-102364683D01*
X190114090Y-102148559D01*
X189901890Y-102003569D01*
X189888803Y-102000919D01*
X190101441Y-101864090D01*
X190246431Y-101651890D01*
X190295415Y-101410000D01*
X191800545Y-101410000D01*
X191920853Y-101590054D01*
X192250026Y-101810000D01*
X191920853Y-102029946D01*
X191598946Y-102511715D01*
X191485907Y-103080000D01*
X191598946Y-103648285D01*
X191920853Y-104130054D01*
X192261553Y-104357702D01*
X192118642Y-104424817D01*
X191728355Y-104853076D01*
X191558524Y-105263110D01*
X191679845Y-105493000D01*
X192873000Y-105493000D01*
X192873000Y-105473000D01*
X193127000Y-105473000D01*
X193127000Y-105493000D01*
X193147000Y-105493000D01*
X193147000Y-105747000D01*
X193127000Y-105747000D01*
X193127000Y-106940819D01*
X193356892Y-107061486D01*
X193881358Y-106815183D01*
X194271645Y-106386924D01*
X194290000Y-106342608D01*
X194290000Y-113290000D01*
X165089678Y-113290000D01*
X165189854Y-113069459D01*
X164000000Y-111879605D01*
X162810146Y-113069459D01*
X162910322Y-113290000D01*
X153710000Y-113290000D01*
X153710000Y-111363880D01*
X162055934Y-111363880D01*
X162075290Y-112133427D01*
X162332545Y-112754496D01*
X162630541Y-112889854D01*
X163820395Y-111700000D01*
X164179605Y-111700000D01*
X165369459Y-112889854D01*
X165667455Y-112754496D01*
X165944066Y-112036120D01*
X165924710Y-111266573D01*
X165667455Y-110645504D01*
X165369459Y-110510146D01*
X164179605Y-111700000D01*
X163820395Y-111700000D01*
X162630541Y-110510146D01*
X162332545Y-110645504D01*
X162055934Y-111363880D01*
X153710000Y-111363880D01*
X153710000Y-110330541D01*
X162810146Y-110330541D01*
X164000000Y-111520395D01*
X165189854Y-110330541D01*
X165054496Y-110032545D01*
X164336120Y-109755934D01*
X163566573Y-109775290D01*
X162945504Y-110032545D01*
X162810146Y-110330541D01*
X153710000Y-110330541D01*
X153710000Y-109435750D01*
X171115000Y-109435750D01*
X171115000Y-110876309D01*
X171211673Y-111109698D01*
X171390301Y-111288327D01*
X171623690Y-111385000D01*
X172714250Y-111385000D01*
X172873000Y-111226250D01*
X172873000Y-109277000D01*
X173127000Y-109277000D01*
X173127000Y-111226250D01*
X173285750Y-111385000D01*
X174376310Y-111385000D01*
X174609699Y-111288327D01*
X174788327Y-111109698D01*
X174885000Y-110876309D01*
X174885000Y-109435750D01*
X174726250Y-109277000D01*
X173127000Y-109277000D01*
X172873000Y-109277000D01*
X171273750Y-109277000D01*
X171115000Y-109435750D01*
X153710000Y-109435750D01*
X153710000Y-108369459D01*
X159810146Y-108369459D01*
X159945504Y-108667455D01*
X160663880Y-108944066D01*
X161433427Y-108924710D01*
X162054496Y-108667455D01*
X162189854Y-108369459D01*
X161000000Y-107179605D01*
X159810146Y-108369459D01*
X153710000Y-108369459D01*
X153710000Y-106663880D01*
X159055934Y-106663880D01*
X159075290Y-107433427D01*
X159332545Y-108054496D01*
X159630541Y-108189854D01*
X160820395Y-107000000D01*
X161179605Y-107000000D01*
X162369459Y-108189854D01*
X162667455Y-108054496D01*
X162944066Y-107336120D01*
X162924710Y-106566573D01*
X162667455Y-105945504D01*
X162369459Y-105810146D01*
X161179605Y-107000000D01*
X160820395Y-107000000D01*
X159630541Y-105810146D01*
X159332545Y-105945504D01*
X159055934Y-106663880D01*
X153710000Y-106663880D01*
X153710000Y-105630541D01*
X159810146Y-105630541D01*
X161000000Y-106820395D01*
X162120395Y-105700000D01*
X165052560Y-105700000D01*
X165052560Y-108300000D01*
X165096838Y-108535317D01*
X165235910Y-108751441D01*
X165448110Y-108896431D01*
X165700000Y-108947440D01*
X168300000Y-108947440D01*
X168535317Y-108903162D01*
X168751441Y-108764090D01*
X168896431Y-108551890D01*
X168947440Y-108300000D01*
X168947440Y-106304139D01*
X169516579Y-105735000D01*
X171102560Y-105735000D01*
X171102560Y-106450000D01*
X171146838Y-106685317D01*
X171285910Y-106901441D01*
X171425750Y-106996990D01*
X171390301Y-107011673D01*
X171211673Y-107190302D01*
X171115000Y-107423691D01*
X171115000Y-108864250D01*
X171273750Y-109023000D01*
X172873000Y-109023000D01*
X172873000Y-109003000D01*
X173127000Y-109003000D01*
X173127000Y-109023000D01*
X174726250Y-109023000D01*
X174885000Y-108864250D01*
X174885000Y-107423691D01*
X174788327Y-107190302D01*
X174609699Y-107011673D01*
X174573253Y-106996577D01*
X174613145Y-106970907D01*
X177435000Y-106970907D01*
X177435000Y-107029093D01*
X177548039Y-107597378D01*
X177869946Y-108079147D01*
X178351715Y-108401054D01*
X178920000Y-108514093D01*
X179488285Y-108401054D01*
X179970054Y-108079147D01*
X180197702Y-107738447D01*
X180264817Y-107881358D01*
X180693076Y-108271645D01*
X181103110Y-108441476D01*
X181333000Y-108320155D01*
X181333000Y-107127000D01*
X181313000Y-107127000D01*
X181313000Y-106873000D01*
X181333000Y-106873000D01*
X181333000Y-105679845D01*
X181103110Y-105558524D01*
X180693076Y-105728355D01*
X180264817Y-106118642D01*
X180197702Y-106261553D01*
X179970054Y-105920853D01*
X179488285Y-105598946D01*
X178920000Y-105485907D01*
X178351715Y-105598946D01*
X177869946Y-105920853D01*
X177548039Y-106402622D01*
X177435000Y-106970907D01*
X174613145Y-106970907D01*
X174701441Y-106914090D01*
X174846431Y-106701890D01*
X174897440Y-106450000D01*
X174897440Y-103250000D01*
X174853162Y-103014683D01*
X174714090Y-102798559D01*
X174501890Y-102653569D01*
X174250000Y-102602560D01*
X171750000Y-102602560D01*
X171514683Y-102646838D01*
X171298559Y-102785910D01*
X171153569Y-102998110D01*
X171102560Y-103250000D01*
X171102560Y-103965000D01*
X169150005Y-103965000D01*
X169150000Y-103964999D01*
X168811325Y-104032367D01*
X168524210Y-104224210D01*
X168524208Y-104224213D01*
X167695861Y-105052560D01*
X165700000Y-105052560D01*
X165464683Y-105096838D01*
X165248559Y-105235910D01*
X165103569Y-105448110D01*
X165052560Y-105700000D01*
X162120395Y-105700000D01*
X162189854Y-105630541D01*
X162054496Y-105332545D01*
X161336120Y-105055934D01*
X160566573Y-105075290D01*
X159945504Y-105332545D01*
X159810146Y-105630541D01*
X153710000Y-105630541D01*
X153710000Y-97285750D01*
X161815000Y-97285750D01*
X161815000Y-97501310D01*
X161911673Y-97734699D01*
X162090302Y-97913327D01*
X162323691Y-98010000D01*
X162764250Y-98010000D01*
X162923000Y-97851250D01*
X162923000Y-97127000D01*
X161973750Y-97127000D01*
X161815000Y-97285750D01*
X153710000Y-97285750D01*
X153710000Y-96498690D01*
X161815000Y-96498690D01*
X161815000Y-96714250D01*
X161973750Y-96873000D01*
X162923000Y-96873000D01*
X162923000Y-96148750D01*
X162764250Y-95990000D01*
X162323691Y-95990000D01*
X162090302Y-96086673D01*
X161911673Y-96265301D01*
X161815000Y-96498690D01*
X153710000Y-96498690D01*
X153710000Y-93585750D01*
X160515000Y-93585750D01*
X160515000Y-94176310D01*
X160611673Y-94409699D01*
X160790302Y-94588327D01*
X161023691Y-94685000D01*
X161864250Y-94685000D01*
X162023000Y-94526250D01*
X162023000Y-93427000D01*
X162277000Y-93427000D01*
X162277000Y-94526250D01*
X162435750Y-94685000D01*
X163276309Y-94685000D01*
X163509698Y-94588327D01*
X163688327Y-94409699D01*
X163785000Y-94176310D01*
X163785000Y-93585750D01*
X163626250Y-93427000D01*
X162277000Y-93427000D01*
X162023000Y-93427000D01*
X160673750Y-93427000D01*
X160515000Y-93585750D01*
X153710000Y-93585750D01*
X153710000Y-89100000D01*
X154202560Y-89100000D01*
X154202560Y-92900000D01*
X154246838Y-93135317D01*
X154385910Y-93351441D01*
X154598110Y-93496431D01*
X154850000Y-93547440D01*
X156850000Y-93547440D01*
X157085317Y-93503162D01*
X157301441Y-93364090D01*
X157446431Y-93151890D01*
X157497440Y-92900000D01*
X157497440Y-91885000D01*
X157999995Y-91885000D01*
X158000000Y-91885001D01*
X158000005Y-91885000D01*
X160527962Y-91885000D01*
X160546838Y-91985317D01*
X160652482Y-92149492D01*
X160611673Y-92190301D01*
X160515000Y-92423690D01*
X160515000Y-93014250D01*
X160673750Y-93173000D01*
X162023000Y-93173000D01*
X162023000Y-93153000D01*
X162277000Y-93153000D01*
X162277000Y-93173000D01*
X163626250Y-93173000D01*
X163785000Y-93014250D01*
X163785000Y-92423690D01*
X163688327Y-92190301D01*
X163646366Y-92148340D01*
X163746431Y-92001890D01*
X163747084Y-91998664D01*
X165115000Y-93366579D01*
X165115000Y-95977560D01*
X164350000Y-95977560D01*
X164114683Y-96021838D01*
X164011354Y-96088329D01*
X164009698Y-96086673D01*
X163776309Y-95990000D01*
X163335750Y-95990000D01*
X163177000Y-96148750D01*
X163177000Y-96873000D01*
X163197000Y-96873000D01*
X163197000Y-97127000D01*
X163177000Y-97127000D01*
X163177000Y-97851250D01*
X163335750Y-98010000D01*
X163776309Y-98010000D01*
X164009698Y-97913327D01*
X164011068Y-97911957D01*
X164098110Y-97971431D01*
X164350000Y-98022440D01*
X165550000Y-98022440D01*
X165785317Y-97978162D01*
X165930095Y-97885000D01*
X166510982Y-97885000D01*
X166585910Y-98001441D01*
X166798110Y-98146431D01*
X167050000Y-98197440D01*
X169550000Y-98197440D01*
X169785317Y-98153162D01*
X169792560Y-98148501D01*
X169792560Y-99950000D01*
X169836838Y-100185317D01*
X169975910Y-100401441D01*
X170188110Y-100546431D01*
X170440000Y-100597440D01*
X171540000Y-100597440D01*
X171775317Y-100553162D01*
X171991441Y-100414090D01*
X171992390Y-100412701D01*
X172188110Y-100546431D01*
X172440000Y-100597440D01*
X173540000Y-100597440D01*
X173775317Y-100553162D01*
X173991441Y-100414090D01*
X173992390Y-100412701D01*
X174188110Y-100546431D01*
X174440000Y-100597440D01*
X175540000Y-100597440D01*
X175775317Y-100553162D01*
X175991441Y-100414090D01*
X175992390Y-100412701D01*
X176188110Y-100546431D01*
X176440000Y-100597440D01*
X177540000Y-100597440D01*
X177775317Y-100553162D01*
X177991441Y-100414090D01*
X177992390Y-100412701D01*
X178188110Y-100546431D01*
X178440000Y-100597440D01*
X179540000Y-100597440D01*
X179775317Y-100553162D01*
X179991441Y-100414090D01*
X179992390Y-100412701D01*
X180188110Y-100546431D01*
X180440000Y-100597440D01*
X181540000Y-100597440D01*
X181775317Y-100553162D01*
X181991441Y-100414090D01*
X182136431Y-100201890D01*
X182187440Y-99950000D01*
X182187440Y-98128563D01*
X182323691Y-98185000D01*
X183414250Y-98185000D01*
X183573000Y-98026250D01*
X183573000Y-97127000D01*
X183827000Y-97127000D01*
X183827000Y-98026250D01*
X183985750Y-98185000D01*
X185076309Y-98185000D01*
X185309698Y-98088327D01*
X185488327Y-97909699D01*
X185585000Y-97676310D01*
X185585000Y-97285750D01*
X185426250Y-97127000D01*
X183827000Y-97127000D01*
X183573000Y-97127000D01*
X183553000Y-97127000D01*
X183553000Y-96873000D01*
X183573000Y-96873000D01*
X183573000Y-95127000D01*
X183827000Y-95127000D01*
X183827000Y-96873000D01*
X185426250Y-96873000D01*
X185585000Y-96714250D01*
X185585000Y-96323690D01*
X185488327Y-96090301D01*
X185398025Y-96000000D01*
X185488327Y-95909699D01*
X185585000Y-95676310D01*
X185585000Y-95285750D01*
X185426250Y-95127000D01*
X183827000Y-95127000D01*
X183573000Y-95127000D01*
X181973750Y-95127000D01*
X181815000Y-95285750D01*
X181815000Y-95676310D01*
X181911673Y-95909699D01*
X182001975Y-96000000D01*
X181911673Y-96090301D01*
X181815000Y-96323690D01*
X181815000Y-96714250D01*
X181973748Y-96872998D01*
X181820325Y-96872998D01*
X181791890Y-96853569D01*
X181540000Y-96802560D01*
X180440000Y-96802560D01*
X180204683Y-96846838D01*
X179988559Y-96985910D01*
X179987610Y-96987299D01*
X179791890Y-96853569D01*
X179540000Y-96802560D01*
X178440000Y-96802560D01*
X178204683Y-96846838D01*
X177988559Y-96985910D01*
X177987610Y-96987299D01*
X177791890Y-96853569D01*
X177540000Y-96802560D01*
X176506089Y-96802560D01*
X176528943Y-96793117D01*
X176792192Y-96530327D01*
X176934838Y-96186799D01*
X176935162Y-95814833D01*
X176793117Y-95471057D01*
X176530327Y-95207808D01*
X176186799Y-95065162D01*
X175814833Y-95064838D01*
X175471057Y-95206883D01*
X175437882Y-95240000D01*
X171000000Y-95240000D01*
X170793782Y-95281020D01*
X174139680Y-91935122D01*
X174185167Y-91935162D01*
X174528943Y-91793117D01*
X174792192Y-91530327D01*
X174934838Y-91186799D01*
X174935162Y-90814833D01*
X174793117Y-90471057D01*
X174530327Y-90207808D01*
X174186799Y-90065162D01*
X173934944Y-90064943D01*
X173935162Y-89814833D01*
X173793117Y-89471057D01*
X173530327Y-89207808D01*
X173186799Y-89065162D01*
X172934944Y-89064943D01*
X172935162Y-88814833D01*
X172793117Y-88471057D01*
X172530327Y-88207808D01*
X172186799Y-88065162D01*
X171934944Y-88064943D01*
X171935162Y-87814833D01*
X171793117Y-87471057D01*
X171530327Y-87207808D01*
X171186799Y-87065162D01*
X170814833Y-87064838D01*
X170471057Y-87206883D01*
X170207808Y-87469673D01*
X170197440Y-87494642D01*
X170197440Y-86450000D01*
X170153162Y-86214683D01*
X170014090Y-85998559D01*
X170012701Y-85997610D01*
X170146431Y-85801890D01*
X170197440Y-85550000D01*
X170197440Y-84450000D01*
X170153162Y-84214683D01*
X170014090Y-83998559D01*
X170012701Y-83997610D01*
X170146431Y-83801890D01*
X170197440Y-83550000D01*
X170197440Y-82450000D01*
X170153162Y-82214683D01*
X170014090Y-81998559D01*
X169801890Y-81853569D01*
X169550000Y-81802560D01*
X167050000Y-81802560D01*
X166814683Y-81846838D01*
X166598559Y-81985910D01*
X166453569Y-82198110D01*
X166445086Y-82240000D01*
X163050000Y-82240000D01*
X162759160Y-82297852D01*
X162512599Y-82462599D01*
X162222638Y-82752560D01*
X161300000Y-82752560D01*
X161064683Y-82796838D01*
X160848559Y-82935910D01*
X160709110Y-83140000D01*
X157287279Y-83140000D01*
X157164090Y-82948559D01*
X156951890Y-82803569D01*
X156700000Y-82752560D01*
X155000000Y-82752560D01*
X154764683Y-82796838D01*
X154548559Y-82935910D01*
X154403569Y-83148110D01*
X154352560Y-83400000D01*
X154352560Y-84400000D01*
X154396838Y-84635317D01*
X154535910Y-84851441D01*
X154748110Y-84996431D01*
X155000000Y-85047440D01*
X156700000Y-85047440D01*
X156935317Y-85003162D01*
X157151441Y-84864090D01*
X157290890Y-84660000D01*
X160712721Y-84660000D01*
X160835910Y-84851441D01*
X161048110Y-84996431D01*
X161300000Y-85047440D01*
X163000000Y-85047440D01*
X163235317Y-85003162D01*
X163451441Y-84864090D01*
X163596431Y-84651890D01*
X163647440Y-84400000D01*
X163647440Y-83760000D01*
X166442074Y-83760000D01*
X166446838Y-83785317D01*
X166585910Y-84001441D01*
X166587299Y-84002390D01*
X166453569Y-84198110D01*
X166402560Y-84450000D01*
X166402560Y-85550000D01*
X166446838Y-85785317D01*
X166585910Y-86001441D01*
X166587299Y-86002390D01*
X166510356Y-86115000D01*
X160000005Y-86115000D01*
X160000000Y-86114999D01*
X159661326Y-86182366D01*
X159618712Y-86210840D01*
X159374210Y-86374210D01*
X159374208Y-86374213D01*
X158374210Y-87374210D01*
X158182367Y-87661325D01*
X158182367Y-87661326D01*
X158114999Y-88000000D01*
X158115000Y-88000005D01*
X158115000Y-89633421D01*
X157633420Y-90115000D01*
X157497440Y-90115000D01*
X157497440Y-89100000D01*
X157453162Y-88864683D01*
X157314090Y-88648559D01*
X157101890Y-88503569D01*
X156850000Y-88452560D01*
X154850000Y-88452560D01*
X154614683Y-88496838D01*
X154398559Y-88635910D01*
X154253569Y-88848110D01*
X154202560Y-89100000D01*
X153710000Y-89100000D01*
X153710000Y-80385750D01*
X154365000Y-80385750D01*
X154365000Y-80726310D01*
X154461673Y-80959699D01*
X154640302Y-81138327D01*
X154873691Y-81235000D01*
X155564250Y-81235000D01*
X155723000Y-81076250D01*
X155723000Y-80227000D01*
X155977000Y-80227000D01*
X155977000Y-81076250D01*
X156135750Y-81235000D01*
X156826309Y-81235000D01*
X157059698Y-81138327D01*
X157238327Y-80959699D01*
X157335000Y-80726310D01*
X157335000Y-80385750D01*
X157176250Y-80227000D01*
X155977000Y-80227000D01*
X155723000Y-80227000D01*
X154523750Y-80227000D01*
X154365000Y-80385750D01*
X153710000Y-80385750D01*
X153710000Y-79473690D01*
X154365000Y-79473690D01*
X154365000Y-79814250D01*
X154523750Y-79973000D01*
X155723000Y-79973000D01*
X155723000Y-79123750D01*
X155977000Y-79123750D01*
X155977000Y-79973000D01*
X157176250Y-79973000D01*
X157335000Y-79814250D01*
X157335000Y-79473690D01*
X157238327Y-79240301D01*
X157059698Y-79061673D01*
X156826309Y-78965000D01*
X156135750Y-78965000D01*
X155977000Y-79123750D01*
X155723000Y-79123750D01*
X155564250Y-78965000D01*
X154873691Y-78965000D01*
X154640302Y-79061673D01*
X154461673Y-79240301D01*
X154365000Y-79473690D01*
X153710000Y-79473690D01*
X153710000Y-71886081D01*
X154133076Y-72271645D01*
X154543110Y-72441476D01*
X154773000Y-72320155D01*
X154773000Y-71127000D01*
X154753000Y-71127000D01*
X154753000Y-70873000D01*
X154773000Y-70873000D01*
X154773000Y-70853000D01*
X155027000Y-70853000D01*
X155027000Y-70873000D01*
G36*
X191417619Y-87952421D02*
X191316655Y-88460000D01*
X191430729Y-89033489D01*
X191755585Y-89519670D01*
X191777780Y-89534500D01*
X191624302Y-89598073D01*
X191445673Y-89776701D01*
X191349000Y-90010090D01*
X191349000Y-90714250D01*
X191507750Y-90873000D01*
X192873000Y-90873000D01*
X192873000Y-90853000D01*
X193127000Y-90853000D01*
X193127000Y-90873000D01*
X193147000Y-90873000D01*
X193147000Y-91127000D01*
X193127000Y-91127000D01*
X193127000Y-92339850D01*
X193285750Y-92498600D01*
X194142309Y-92498600D01*
X194290000Y-92437424D01*
X194290000Y-96682099D01*
X194101890Y-96553569D01*
X193850000Y-96502560D01*
X192150000Y-96502560D01*
X191914683Y-96546838D01*
X191698559Y-96685910D01*
X191553569Y-96898110D01*
X191502560Y-97150000D01*
X191502560Y-98850000D01*
X191546838Y-99085317D01*
X191685910Y-99301441D01*
X191898110Y-99446431D01*
X191965541Y-99460086D01*
X191920853Y-99489946D01*
X191653546Y-99890000D01*
X190295558Y-99890000D01*
X190253162Y-99664683D01*
X190114090Y-99448559D01*
X189901890Y-99303569D01*
X189760000Y-99274836D01*
X189760000Y-91285750D01*
X191349000Y-91285750D01*
X191349000Y-91989910D01*
X191445673Y-92223299D01*
X191624302Y-92401927D01*
X191857691Y-92498600D01*
X192714250Y-92498600D01*
X192873000Y-92339850D01*
X192873000Y-91127000D01*
X191507750Y-91127000D01*
X191349000Y-91285750D01*
X189760000Y-91285750D01*
X189760000Y-89000000D01*
X189702148Y-88709161D01*
X189537401Y-88462599D01*
X187537401Y-86462599D01*
X187290839Y-86297852D01*
X187000000Y-86240000D01*
X185557926Y-86240000D01*
X185553162Y-86214683D01*
X185414090Y-85998559D01*
X185412701Y-85997610D01*
X185546431Y-85801890D01*
X185554914Y-85760000D01*
X189225198Y-85760000D01*
X191417619Y-87952421D01*
X191417619Y-87952421D01*
G37*
X191417619Y-87952421D02*
X191316655Y-88460000D01*
X191430729Y-89033489D01*
X191755585Y-89519670D01*
X191777780Y-89534500D01*
X191624302Y-89598073D01*
X191445673Y-89776701D01*
X191349000Y-90010090D01*
X191349000Y-90714250D01*
X191507750Y-90873000D01*
X192873000Y-90873000D01*
X192873000Y-90853000D01*
X193127000Y-90853000D01*
X193127000Y-90873000D01*
X193147000Y-90873000D01*
X193147000Y-91127000D01*
X193127000Y-91127000D01*
X193127000Y-92339850D01*
X193285750Y-92498600D01*
X194142309Y-92498600D01*
X194290000Y-92437424D01*
X194290000Y-96682099D01*
X194101890Y-96553569D01*
X193850000Y-96502560D01*
X192150000Y-96502560D01*
X191914683Y-96546838D01*
X191698559Y-96685910D01*
X191553569Y-96898110D01*
X191502560Y-97150000D01*
X191502560Y-98850000D01*
X191546838Y-99085317D01*
X191685910Y-99301441D01*
X191898110Y-99446431D01*
X191965541Y-99460086D01*
X191920853Y-99489946D01*
X191653546Y-99890000D01*
X190295558Y-99890000D01*
X190253162Y-99664683D01*
X190114090Y-99448559D01*
X189901890Y-99303569D01*
X189760000Y-99274836D01*
X189760000Y-91285750D01*
X191349000Y-91285750D01*
X191349000Y-91989910D01*
X191445673Y-92223299D01*
X191624302Y-92401927D01*
X191857691Y-92498600D01*
X192714250Y-92498600D01*
X192873000Y-92339850D01*
X192873000Y-91127000D01*
X191507750Y-91127000D01*
X191349000Y-91285750D01*
X189760000Y-91285750D01*
X189760000Y-89000000D01*
X189702148Y-88709161D01*
X189537401Y-88462599D01*
X187537401Y-86462599D01*
X187290839Y-86297852D01*
X187000000Y-86240000D01*
X185557926Y-86240000D01*
X185553162Y-86214683D01*
X185414090Y-85998559D01*
X185412701Y-85997610D01*
X185546431Y-85801890D01*
X185554914Y-85760000D01*
X189225198Y-85760000D01*
X191417619Y-87952421D01*
M02*
